<svg width="170" height="32" viewBox="0 0 170 32" fill="none" xmlns="http://www.w3.org/2000/svg">
<g filter="url(#filter0_d_2_4)">
<path d="M6.79297 16.1602H14.8789V18H4.53125V0.9375H6.79297V16.1602ZM19.4609 18H17.293V5.32031H19.4609V18ZM17.1172 1.95703C17.1172 1.60547 17.2227 1.30859 17.4336 1.06641C17.6523 0.824219 17.9727 0.703125 18.3945 0.703125C18.8164 0.703125 19.1367 0.824219 19.3555 1.06641C19.5742 1.30859 19.6836 1.60547 19.6836 1.95703C19.6836 2.30859 19.5742 2.60156 19.3555 2.83594C19.1367 3.07031 18.8164 3.1875 18.3945 3.1875C17.9727 3.1875 17.6523 3.07031 17.4336 2.83594C17.2227 2.60156 17.1172 2.30859 17.1172 1.95703ZM25.1797 5.32031V19.4648C25.1797 21.9023 24.0742 23.1211 21.8633 23.1211C21.3867 23.1211 20.9453 23.0508 20.5391 22.9102V21.1758C20.7891 21.2383 21.1172 21.2695 21.5234 21.2695C22.0078 21.2695 22.375 21.1367 22.625 20.8711C22.8828 20.6133 23.0117 20.1602 23.0117 19.5117V5.32031H25.1797ZM22.7891 1.95703C22.7891 1.61328 22.8945 1.32031 23.1055 1.07812C23.3242 0.828125 23.6406 0.703125 24.0547 0.703125C24.4766 0.703125 24.7969 0.824219 25.0156 1.06641C25.2344 1.30859 25.3438 1.60547 25.3438 1.95703C25.3438 2.30859 25.2344 2.60156 25.0156 2.83594C24.7969 3.07031 24.4766 3.1875 24.0547 3.1875C23.6328 3.1875 23.3164 3.07031 23.1055 2.83594C22.8945 2.60156 22.7891 2.30859 22.7891 1.95703ZM33.9453 18.2344C32.2266 18.2344 30.8281 17.6719 29.75 16.5469C28.6719 15.4141 28.1328 13.9023 28.1328 12.0117V11.6133C28.1328 10.3555 28.3711 9.23438 28.8477 8.25C29.332 7.25781 30.0039 6.48438 30.8633 5.92969C31.7305 5.36719 32.668 5.08594 33.6758 5.08594C35.3242 5.08594 36.6055 5.62891 37.5195 6.71484C38.4336 7.80078 38.8906 9.35547 38.8906 11.3789V12.2812H30.3008C30.332 13.5312 30.6953 14.543 31.3906 15.3164C32.0938 16.082 32.9844 16.4648 34.0625 16.4648C34.8281 16.4648 35.4766 16.3086 36.0078 15.9961C36.5391 15.6836 37.0039 15.2695 37.4023 14.7539L38.7266 15.7852C37.6641 17.418 36.0703 18.2344 33.9453 18.2344ZM33.6758 6.86719C32.8008 6.86719 32.0664 7.1875 31.4727 7.82812C30.8789 8.46094 30.5117 9.35156 30.3711 10.5H36.7227V10.3359C36.6602 9.23438 36.3633 8.38281 35.832 7.78125C35.3008 7.17188 34.582 6.86719 33.6758 6.86719ZM44.9492 12.1289L43.5898 13.5469V18H41.4219V0H43.5898V10.8867L44.75 9.49219L48.6992 5.32031H51.3359L46.4023 10.6172L51.9102 18H49.3672L44.9492 12.1289ZM53 11.543C53 10.3008 53.2422 9.18359 53.7266 8.19141C54.2188 7.19922 54.8984 6.43359 55.7656 5.89453C56.6406 5.35547 57.6367 5.08594 58.7539 5.08594C60.4805 5.08594 61.875 5.68359 62.9375 6.87891C64.0078 8.07422 64.543 9.66406 64.543 11.6484V11.8008C64.543 13.0352 64.3047 14.1445 63.8281 15.1289C63.3594 16.1055 62.6836 16.8672 61.8008 17.4141C60.9258 17.9609 59.918 18.2344 58.7773 18.2344C57.0586 18.2344 55.6641 17.6367 54.5938 16.4414C53.5312 15.2461 53 13.6641 53 11.6953V11.543ZM55.1797 11.8008C55.1797 13.207 55.5039 14.3359 56.1523 15.1875C56.8086 16.0391 57.6836 16.4648 58.7773 16.4648C59.8789 16.4648 60.7539 16.0352 61.4023 15.1758C62.0508 14.3086 62.375 13.0977 62.375 11.543C62.375 10.1523 62.043 9.02734 61.3789 8.16797C60.7227 7.30078 59.8477 6.86719 58.7539 6.86719C57.6836 6.86719 56.8203 7.29297 56.1641 8.14453C55.5078 8.99609 55.1797 10.2148 55.1797 11.8008ZM71.2578 15.0586L74.3984 5.32031H76.6133L72.0664 18H70.4141L65.8203 5.32031H68.0352L71.2578 15.0586ZM81.0547 18H78.8867V5.32031H81.0547V18ZM78.7109 1.95703C78.7109 1.60547 78.8164 1.30859 79.0273 1.06641C79.2461 0.824219 79.5664 0.703125 79.9883 0.703125C80.4102 0.703125 80.7305 0.824219 80.9492 1.06641C81.168 1.30859 81.2773 1.60547 81.2773 1.95703C81.2773 2.30859 81.168 2.60156 80.9492 2.83594C80.7305 3.07031 80.4102 3.1875 79.9883 3.1875C79.5664 3.1875 79.2461 3.07031 79.0273 2.83594C78.8164 2.60156 78.7109 2.30859 78.7109 1.95703ZM87.4766 2.25V5.32031H89.8438V6.99609H87.4766V14.8594C87.4766 15.3672 87.582 15.75 87.793 16.0078C88.0039 16.2578 88.3633 16.3828 88.8711 16.3828C89.1211 16.3828 89.4648 16.3359 89.9023 16.2422V18C89.332 18.1562 88.7773 18.2344 88.2383 18.2344C87.2695 18.2344 86.5391 17.9414 86.0469 17.3555C85.5547 16.7695 85.3086 15.9375 85.3086 14.8594V6.99609H83V5.32031H85.3086V2.25H87.4766ZM97.6484 18.2344C95.9297 18.2344 94.5312 17.6719 93.4531 16.5469C92.375 15.4141 91.8359 13.9023 91.8359 12.0117V11.6133C91.8359 10.3555 92.0742 9.23438 92.5508 8.25C93.0352 7.25781 93.707 6.48438 94.5664 5.92969C95.4336 5.36719 96.3711 5.08594 97.3789 5.08594C99.0273 5.08594 100.309 5.62891 101.223 6.71484C102.137 7.80078 102.594 9.35547 102.594 11.3789V12.2812H94.0039C94.0352 13.5312 94.3984 14.543 95.0938 15.3164C95.7969 16.082 96.6875 16.4648 97.7656 16.4648C98.5312 16.4648 99.1797 16.3086 99.7109 15.9961C100.242 15.6836 100.707 15.2695 101.105 14.7539L102.43 15.7852C101.367 17.418 99.7734 18.2344 97.6484 18.2344ZM97.3789 6.86719C96.5039 6.86719 95.7695 7.1875 95.1758 7.82812C94.582 8.46094 94.2148 9.35156 94.0742 10.5H100.426V10.3359C100.363 9.23438 100.066 8.38281 99.5352 7.78125C99.0039 7.17188 98.2852 6.86719 97.3789 6.86719Z" fill="#29A7A7"/>
<path d="M6.79297 16.1602H14.8789V18H4.53125V0.9375H6.79297V16.1602ZM19.4609 18H17.293V5.32031H19.4609V18ZM17.1172 1.95703C17.1172 1.60547 17.2227 1.30859 17.4336 1.06641C17.6523 0.824219 17.9727 0.703125 18.3945 0.703125C18.8164 0.703125 19.1367 0.824219 19.3555 1.06641C19.5742 1.30859 19.6836 1.60547 19.6836 1.95703C19.6836 2.30859 19.5742 2.60156 19.3555 2.83594C19.1367 3.07031 18.8164 3.1875 18.3945 3.1875C17.9727 3.1875 17.6523 3.07031 17.4336 2.83594C17.2227 2.60156 17.1172 2.30859 17.1172 1.95703ZM25.1797 5.32031V19.4648C25.1797 21.9023 24.0742 23.1211 21.8633 23.1211C21.3867 23.1211 20.9453 23.0508 20.5391 22.9102V21.1758C20.7891 21.2383 21.1172 21.2695 21.5234 21.2695C22.0078 21.2695 22.375 21.1367 22.625 20.8711C22.8828 20.6133 23.0117 20.1602 23.0117 19.5117V5.32031H25.1797ZM22.7891 1.95703C22.7891 1.61328 22.8945 1.32031 23.1055 1.07812C23.3242 0.828125 23.6406 0.703125 24.0547 0.703125C24.4766 0.703125 24.7969 0.824219 25.0156 1.06641C25.2344 1.30859 25.3438 1.60547 25.3438 1.95703C25.3438 2.30859 25.2344 2.60156 25.0156 2.83594C24.7969 3.07031 24.4766 3.1875 24.0547 3.1875C23.6328 3.1875 23.3164 3.07031 23.1055 2.83594C22.8945 2.60156 22.7891 2.30859 22.7891 1.95703ZM33.9453 18.2344C32.2266 18.2344 30.8281 17.6719 29.75 16.5469C28.6719 15.4141 28.1328 13.9023 28.1328 12.0117V11.6133C28.1328 10.3555 28.3711 9.23438 28.8477 8.25C29.332 7.25781 30.0039 6.48438 30.8633 5.92969C31.7305 5.36719 32.668 5.08594 33.6758 5.08594C35.3242 5.08594 36.6055 5.62891 37.5195 6.71484C38.4336 7.80078 38.8906 9.35547 38.8906 11.3789V12.2812H30.3008C30.332 13.5312 30.6953 14.543 31.3906 15.3164C32.0938 16.082 32.9844 16.4648 34.0625 16.4648C34.8281 16.4648 35.4766 16.3086 36.0078 15.9961C36.5391 15.6836 37.0039 15.2695 37.4023 14.7539L38.7266 15.7852C37.6641 17.418 36.0703 18.2344 33.9453 18.2344ZM33.6758 6.86719C32.8008 6.86719 32.0664 7.1875 31.4727 7.82812C30.8789 8.46094 30.5117 9.35156 30.3711 10.5H36.7227V10.3359C36.6602 9.23438 36.3633 8.38281 35.832 7.78125C35.3008 7.17188 34.582 6.86719 33.6758 6.86719ZM44.9492 12.1289L43.5898 13.5469V18H41.4219V0H43.5898V10.8867L44.75 9.49219L48.6992 5.32031H51.3359L46.4023 10.6172L51.9102 18H49.3672L44.9492 12.1289ZM53 11.543C53 10.3008 53.2422 9.18359 53.7266 8.19141C54.2188 7.19922 54.8984 6.43359 55.7656 5.89453C56.6406 5.35547 57.6367 5.08594 58.7539 5.08594C60.4805 5.08594 61.875 5.68359 62.9375 6.87891C64.0078 8.07422 64.543 9.66406 64.543 11.6484V11.8008C64.543 13.0352 64.3047 14.1445 63.8281 15.1289C63.3594 16.1055 62.6836 16.8672 61.8008 17.4141C60.9258 17.9609 59.918 18.2344 58.7773 18.2344C57.0586 18.2344 55.6641 17.6367 54.5938 16.4414C53.5312 15.2461 53 13.6641 53 11.6953V11.543ZM55.1797 11.8008C55.1797 13.207 55.5039 14.3359 56.1523 15.1875C56.8086 16.0391 57.6836 16.4648 58.7773 16.4648C59.8789 16.4648 60.7539 16.0352 61.4023 15.1758C62.0508 14.3086 62.375 13.0977 62.375 11.543C62.375 10.1523 62.043 9.02734 61.3789 8.16797C60.7227 7.30078 59.8477 6.86719 58.7539 6.86719C57.6836 6.86719 56.8203 7.29297 56.1641 8.14453C55.5078 8.99609 55.1797 10.2148 55.1797 11.8008ZM71.2578 15.0586L74.3984 5.32031H76.6133L72.0664 18H70.4141L65.8203 5.32031H68.0352L71.2578 15.0586ZM81.0547 18H78.8867V5.32031H81.0547V18ZM78.7109 1.95703C78.7109 1.60547 78.8164 1.30859 79.0273 1.06641C79.2461 0.824219 79.5664 0.703125 79.9883 0.703125C80.4102 0.703125 80.7305 0.824219 80.9492 1.06641C81.168 1.30859 81.2773 1.60547 81.2773 1.95703C81.2773 2.30859 81.168 2.60156 80.9492 2.83594C80.7305 3.07031 80.4102 3.1875 79.9883 3.1875C79.5664 3.1875 79.2461 3.07031 79.0273 2.83594C78.8164 2.60156 78.7109 2.30859 78.7109 1.95703ZM87.4766 2.25V5.32031H89.8438V6.99609H87.4766V14.8594C87.4766 15.3672 87.582 15.75 87.793 16.0078C88.0039 16.2578 88.3633 16.3828 88.8711 16.3828C89.1211 16.3828 89.4648 16.3359 89.9023 16.2422V18C89.332 18.1562 88.7773 18.2344 88.2383 18.2344C87.2695 18.2344 86.5391 17.9414 86.0469 17.3555C85.5547 16.7695 85.3086 15.9375 85.3086 14.8594V6.99609H83V5.32031H85.3086V2.25H87.4766ZM97.6484 18.2344C95.9297 18.2344 94.5312 17.6719 93.4531 16.5469C92.375 15.4141 91.8359 13.9023 91.8359 12.0117V11.6133C91.8359 10.3555 92.0742 9.23438 92.5508 8.25C93.0352 7.25781 93.707 6.48438 94.5664 5.92969C95.4336 5.36719 96.3711 5.08594 97.3789 5.08594C99.0273 5.08594 100.309 5.62891 101.223 6.71484C102.137 7.80078 102.594 9.35547 102.594 11.3789V12.2812H94.0039C94.0352 13.5312 94.3984 14.543 95.0938 15.3164C95.7969 16.082 96.6875 16.4648 97.7656 16.4648C98.5312 16.4648 99.1797 16.3086 99.7109 15.9961C100.242 15.6836 100.707 15.2695 101.105 14.7539L102.43 15.7852C101.367 17.418 99.7734 18.2344 97.6484 18.2344ZM97.3789 6.86719C96.5039 6.86719 95.7695 7.1875 95.1758 7.82812C94.582 8.46094 94.2148 9.35156 94.0742 10.5H100.426V10.3359C100.363 9.23438 100.066 8.38281 99.5352 7.78125C99.0039 7.17188 98.2852 6.86719 97.3789 6.86719Z" fill="black"/>
<path d="M111.406 18V0.9375H116.984C118.836 0.9375 120.227 1.32031 121.156 2.08594C122.094 2.85156 122.562 3.98438 122.562 5.48438C122.562 6.28125 122.336 6.98828 121.883 7.60547C121.43 8.21484 120.812 8.6875 120.031 9.02344C120.953 9.28125 121.68 9.77344 122.211 10.5C122.75 11.2188 123.02 12.0781 123.02 13.0781C123.02 14.6094 122.523 15.8125 121.531 16.6875C120.539 17.5625 119.137 18 117.324 18H111.406ZM113.656 10.0195V16.1602H117.371C118.418 16.1602 119.242 15.8906 119.844 15.3516C120.453 14.8047 120.758 14.0547 120.758 13.1016C120.758 11.0469 119.641 10.0195 117.406 10.0195H113.656ZM113.656 8.21484H117.055C118.039 8.21484 118.824 7.96875 119.41 7.47656C120.004 6.98438 120.301 6.31641 120.301 5.47266C120.301 4.53516 120.027 3.85547 119.48 3.43359C118.934 3.00391 118.102 2.78906 116.984 2.78906H113.656V8.21484ZM128.375 18H126.207V5.32031H128.375V18ZM126.031 1.95703C126.031 1.60547 126.137 1.30859 126.348 1.06641C126.566 0.824219 126.887 0.703125 127.309 0.703125C127.73 0.703125 128.051 0.824219 128.27 1.06641C128.488 1.30859 128.598 1.60547 128.598 1.95703C128.598 2.30859 128.488 2.60156 128.27 2.83594C128.051 3.07031 127.73 3.1875 127.309 3.1875C126.887 3.1875 126.566 3.07031 126.348 2.83594C126.137 2.60156 126.031 2.30859 126.031 1.95703ZM134.211 18H132.043V0H134.211V18ZM139.93 5.32031V19.4648C139.93 21.9023 138.824 23.1211 136.613 23.1211C136.137 23.1211 135.695 23.0508 135.289 22.9102V21.1758C135.539 21.2383 135.867 21.2695 136.273 21.2695C136.758 21.2695 137.125 21.1367 137.375 20.8711C137.633 20.6133 137.762 20.1602 137.762 19.5117V5.32031H139.93ZM137.539 1.95703C137.539 1.61328 137.645 1.32031 137.855 1.07812C138.074 0.828125 138.391 0.703125 138.805 0.703125C139.227 0.703125 139.547 0.824219 139.766 1.06641C139.984 1.30859 140.094 1.60547 140.094 1.95703C140.094 2.30859 139.984 2.60156 139.766 2.83594C139.547 3.07031 139.227 3.1875 138.805 3.1875C138.383 3.1875 138.066 3.07031 137.855 2.83594C137.645 2.60156 137.539 2.30859 137.539 1.95703ZM146.973 12.1289L145.613 13.5469V18H143.445V0H145.613V10.8867L146.773 9.49219L150.723 5.32031H153.359L148.426 10.6172L153.934 18H151.391L146.973 12.1289ZM160.625 18.2344C158.906 18.2344 157.508 17.6719 156.43 16.5469C155.352 15.4141 154.812 13.9023 154.812 12.0117V11.6133C154.812 10.3555 155.051 9.23438 155.527 8.25C156.012 7.25781 156.684 6.48438 157.543 5.92969C158.41 5.36719 159.348 5.08594 160.355 5.08594C162.004 5.08594 163.285 5.62891 164.199 6.71484C165.113 7.80078 165.57 9.35547 165.57 11.3789V12.2812H156.98C157.012 13.5312 157.375 14.543 158.07 15.3164C158.773 16.082 159.664 16.4648 160.742 16.4648C161.508 16.4648 162.156 16.3086 162.688 15.9961C163.219 15.6836 163.684 15.2695 164.082 14.7539L165.406 15.7852C164.344 17.418 162.75 18.2344 160.625 18.2344ZM160.355 6.86719C159.48 6.86719 158.746 7.1875 158.152 7.82812C157.559 8.46094 157.191 9.35156 157.051 10.5H163.402V10.3359C163.34 9.23438 163.043 8.38281 162.512 7.78125C161.98 7.17188 161.262 6.86719 160.355 6.86719Z" fill="#29A7A7"/>
<path d="M6.79297 16.1602H5.79297V17.1602H6.79297V16.1602ZM14.8789 16.1602H15.8789V15.1602H14.8789V16.1602ZM14.8789 18V19H15.8789V18H14.8789ZM4.53125 18H3.53125V19H4.53125V18ZM4.53125 0.9375V-0.0625H3.53125V0.9375H4.53125ZM6.79297 0.9375H7.79297V-0.0625H6.79297V0.9375ZM6.79297 17.1602H14.8789V15.1602H6.79297V17.1602ZM13.8789 16.1602V18H15.8789V16.1602H13.8789ZM14.8789 17H4.53125V19H14.8789V17ZM5.53125 18V0.9375H3.53125V18H5.53125ZM4.53125 1.9375H6.79297V-0.0625H4.53125V1.9375ZM5.79297 0.9375V16.1602H7.79297V0.9375H5.79297ZM19.4609 18V19H20.4609V18H19.4609ZM17.293 18H16.293V19H17.293V18ZM17.293 5.32031V4.32031H16.293V5.32031H17.293ZM19.4609 5.32031H20.4609V4.32031H19.4609V5.32031ZM17.4336 1.06641L16.6915 0.39612L16.6854 0.402819L16.6795 0.409626L17.4336 1.06641ZM17.4336 2.83594L16.6903 3.5049L16.6964 3.51163L16.7025 3.51826L17.4336 2.83594ZM19.4609 17H17.293V19H19.4609V17ZM18.293 18V5.32031H16.293V18H18.293ZM17.293 6.32031H19.4609V4.32031H17.293V6.32031ZM18.4609 5.32031V18H20.4609V5.32031H18.4609ZM18.1172 1.95703C18.1172 1.82228 18.1508 1.76556 18.1877 1.72319L16.6795 0.409626C16.2945 0.851624 16.1172 1.38866 16.1172 1.95703H18.1172ZM18.1757 1.73669C18.1762 1.73616 18.1762 1.73617 18.1759 1.73645C18.1756 1.73674 18.1754 1.73686 18.1756 1.73674C18.1757 1.73661 18.1768 1.73589 18.1791 1.7347C18.1815 1.73349 18.1855 1.73161 18.1915 1.72933C18.2158 1.72013 18.2773 1.70312 18.3945 1.70312V-0.296875C17.7777 -0.296875 17.1517 -0.113388 16.6915 0.39612L18.1757 1.73669ZM18.3945 1.70312C18.5117 1.70312 18.5732 1.72013 18.5975 1.72933C18.6036 1.73161 18.6076 1.73349 18.6099 1.7347C18.6122 1.73589 18.6133 1.73661 18.6135 1.73674C18.6137 1.73686 18.6135 1.73674 18.6132 1.73645C18.6128 1.73617 18.6129 1.73616 18.6134 1.73669L20.0976 0.39612C19.6374 -0.113388 19.0114 -0.296875 18.3945 -0.296875V1.70312ZM18.6134 1.73669C18.6527 1.78021 18.6836 1.83231 18.6836 1.95703H20.6836C20.6836 1.37863 20.4958 0.836979 20.0976 0.39612L18.6134 1.73669ZM18.6836 1.95703C18.6836 2.08192 18.653 2.123 18.6244 2.15362L20.0865 3.51826C20.4954 3.08013 20.6836 2.53527 20.6836 1.95703H18.6836ZM18.6244 2.15362C18.629 2.14866 18.6299 2.15233 18.6076 2.16049C18.5801 2.17054 18.515 2.1875 18.3945 2.1875V4.1875C19.0017 4.1875 19.624 4.01387 20.0865 3.51826L18.6244 2.15362ZM18.3945 2.1875C18.2741 2.1875 18.209 2.17054 18.1815 2.16049C18.1592 2.15233 18.16 2.14866 18.1646 2.15362L16.7025 3.51826C17.1651 4.01387 17.7874 4.1875 18.3945 4.1875V2.1875ZM18.1769 2.16697C18.1506 2.13775 18.1172 2.09214 18.1172 1.95703H16.1172C16.1172 2.52505 16.2947 3.06537 16.6903 3.5049L18.1769 2.16697ZM25.1797 5.32031H26.1797V4.32031H25.1797V5.32031ZM20.5391 22.9102H19.5391V23.6222L20.212 23.8551L20.5391 22.9102ZM20.5391 21.1758L20.7816 20.2056L19.5391 19.895V21.1758H20.5391ZM22.625 20.8711L21.9179 20.164L21.9072 20.1747L21.8968 20.1857L22.625 20.8711ZM23.0117 5.32031V4.32031H22.0117V5.32031H23.0117ZM23.1055 1.07812L22.3529 0.419619L22.3514 0.421344L23.1055 1.07812ZM24.1797 5.32031V19.4648H26.1797V5.32031H24.1797ZM24.1797 19.4648C24.1797 20.5523 23.931 21.1812 23.6099 21.5352C23.3056 21.8707 22.7881 22.1211 21.8633 22.1211V24.1211C23.1494 24.1211 24.2901 23.7621 25.0913 22.8789C25.8756 22.0141 26.1797 20.8149 26.1797 19.4648H24.1797ZM21.8633 22.1211C21.4861 22.1211 21.1564 22.0656 20.8662 21.9652L20.212 23.8551C20.7342 24.0359 21.2874 24.1211 21.8633 24.1211V22.1211ZM21.5391 22.9102V21.1758H19.5391V22.9102H21.5391ZM20.2965 22.1459C20.6577 22.2362 21.0766 22.2695 21.5234 22.2695V20.2695C21.1578 20.2695 20.9204 20.2403 20.7816 20.2056L20.2965 22.1459ZM21.5234 22.2695C22.1891 22.2695 22.858 22.0826 23.3532 21.5565L21.8968 20.1857C21.892 20.1908 21.8265 20.2695 21.5234 20.2695V22.2695ZM23.3321 21.5782C23.8787 21.0316 24.0117 20.2358 24.0117 19.5117H22.0117C22.0117 19.7755 21.9848 19.953 21.9532 20.0643C21.9221 20.1736 21.8962 20.1857 21.9179 20.164L23.3321 21.5782ZM24.0117 19.5117V5.32031H22.0117V19.5117H24.0117ZM23.0117 6.32031H25.1797V4.32031H23.0117V6.32031ZM23.7891 1.95703C23.7891 1.83631 23.8189 1.78161 23.8596 1.73491L22.3514 0.421344C21.9702 0.859013 21.7891 1.39026 21.7891 1.95703H23.7891ZM23.858 1.73663C23.8599 1.7345 23.8605 1.73235 23.8743 1.72693C23.8931 1.71948 23.9469 1.70312 24.0547 1.70312V-0.296875C23.4291 -0.296875 22.8068 -0.0991788 22.3529 0.41962L23.858 1.73663ZM24.0547 1.70312C24.1719 1.70312 24.2334 1.72013 24.2577 1.72933C24.2637 1.73161 24.2677 1.73349 24.2701 1.7347C24.2724 1.73589 24.2735 1.73661 24.2737 1.73674C24.2738 1.73686 24.2737 1.73674 24.2733 1.73645C24.273 1.73617 24.273 1.73616 24.2735 1.73669L25.7577 0.39612C25.2975 -0.113388 24.6715 -0.296875 24.0547 -0.296875V1.70312ZM24.2735 1.73669C24.3128 1.78021 24.3438 1.83231 24.3438 1.95703H26.3438C26.3438 1.37863 26.1559 0.836979 25.7577 0.39612L24.2735 1.73669ZM24.3438 1.95703C24.3438 2.08192 24.3131 2.123 24.2846 2.15362L25.7467 3.51826C26.1556 3.08013 26.3438 2.53527 26.3438 1.95703H24.3438ZM24.2846 2.15362C24.2892 2.14866 24.29 2.15233 24.2677 2.16049C24.2403 2.17054 24.1752 2.1875 24.0547 2.1875V4.1875C24.6619 4.1875 25.2841 4.01387 25.7467 3.51826L24.2846 2.15362ZM24.0547 2.1875C23.9338 2.1875 23.8714 2.17042 23.8483 2.16186C23.831 2.15544 23.8384 2.15547 23.8488 2.16697L22.3622 3.5049C22.821 4.01465 23.4499 4.1875 24.0547 4.1875V2.1875ZM23.8488 2.16697C23.8225 2.13775 23.7891 2.09214 23.7891 1.95703H21.7891C21.7891 2.52505 21.9666 3.06537 22.3622 3.5049L23.8488 2.16697ZM29.75 16.5469L29.0256 17.2363L29.028 17.2388L29.75 16.5469ZM28.8477 8.25L27.949 7.8113L27.9476 7.81425L28.8477 8.25ZM30.8633 5.92969L31.4056 6.76987L31.4075 6.76865L30.8633 5.92969ZM38.8906 12.2812V13.2812H39.8906V12.2812H38.8906ZM30.3008 12.2812V11.2812H29.2755L29.3011 12.3062L30.3008 12.2812ZM31.3906 15.3164L30.6469 15.985L30.6541 15.9928L31.3906 15.3164ZM37.4023 14.7539L38.0168 13.9649L37.2248 13.3482L36.6111 14.1425L37.4023 14.7539ZM38.7266 15.7852L39.5647 16.3306L40.0658 15.5606L39.341 14.9962L38.7266 15.7852ZM31.4727 7.82812L32.2019 8.51238L32.2061 8.50789L31.4727 7.82812ZM30.3711 10.5L29.3785 10.3785L29.2412 11.5H30.3711V10.5ZM36.7227 10.5V11.5H37.7227V10.5H36.7227ZM36.7227 10.3359H37.7227V10.3076L37.7211 10.2793L36.7227 10.3359ZM35.832 7.78125L35.0782 8.4384L35.0825 8.44319L35.832 7.78125ZM33.9453 17.2344C32.4681 17.2344 31.341 16.7618 30.472 15.855L29.028 17.2388C30.3152 18.5819 31.985 19.2344 33.9453 19.2344V17.2344ZM30.4744 15.8575C29.6088 14.948 29.1328 13.7025 29.1328 12.0117H27.1328C27.1328 14.1022 27.7349 15.8801 29.0256 17.2363L30.4744 15.8575ZM29.1328 12.0117V11.6133H27.1328V12.0117H29.1328ZM29.1328 11.6133C29.1328 10.4837 29.3461 9.51526 29.7477 8.68575L27.9476 7.81425C27.396 8.95349 27.1328 10.2272 27.1328 11.6133H29.1328ZM29.7463 8.6887C30.1573 7.84682 30.7115 7.21787 31.4056 6.76987L30.321 5.0895C29.2963 5.75088 28.5068 6.6688 27.949 7.8113L29.7463 8.6887ZM31.4075 6.76865C32.117 6.3084 32.8663 6.08594 33.6758 6.08594V4.08594C32.4697 4.08594 31.3439 4.42597 30.3191 5.09073L31.4075 6.76865ZM33.6758 6.08594C35.0821 6.08594 36.0621 6.53621 36.7545 7.35881L38.2846 6.07088C37.1489 4.7216 35.5663 4.08594 33.6758 4.08594V6.08594ZM36.7545 7.35881C37.4635 8.20119 37.8906 9.4925 37.8906 11.3789H39.8906C39.8906 9.21844 39.4037 7.40037 38.2846 6.07088L36.7545 7.35881ZM37.8906 11.3789V12.2812H39.8906V11.3789H37.8906ZM38.8906 11.2812H30.3008V13.2812H38.8906V11.2812ZM29.3011 12.3062C29.337 13.7441 29.7616 15.0002 30.647 15.985L32.1343 14.6479C31.629 14.0858 31.327 13.3184 31.3005 12.2563L29.3011 12.3062ZM30.6541 15.9928C31.5544 16.9732 32.7162 17.4648 34.0625 17.4648V15.4648C33.2526 15.4648 32.6331 15.1909 32.1272 14.64L30.6541 15.9928ZM34.0625 17.4648C34.9636 17.4648 35.7968 17.2804 36.5148 16.858L35.5008 15.1342C35.1563 15.3368 34.6927 15.4648 34.0625 15.4648V17.4648ZM36.5148 16.858C37.1621 16.4773 37.7218 15.976 38.1936 15.3654L36.6111 14.1425C36.286 14.5631 35.916 14.8899 35.5008 15.1342L36.5148 16.858ZM36.7879 15.5429L38.1121 16.5741L39.341 14.9962L38.0168 13.9649L36.7879 15.5429ZM37.8884 15.2397C37.0295 16.5597 35.7685 17.2344 33.9453 17.2344V19.2344C36.3721 19.2344 38.2987 18.2762 39.5647 16.3306L37.8884 15.2397ZM33.6758 5.86719C32.5229 5.86719 31.5226 6.30314 30.7392 7.14836L32.2061 8.50789C32.6102 8.07186 33.0786 7.86719 33.6758 7.86719V5.86719ZM30.7434 7.14388C29.9628 7.97585 29.5364 9.08882 29.3785 10.3785L31.3637 10.6215C31.487 9.6143 31.795 8.94603 32.2019 8.51237L30.7434 7.14388ZM30.3711 11.5H36.7227V9.5H30.3711V11.5ZM37.7227 10.5V10.3359H35.7227V10.5H37.7227ZM37.7211 10.2793C37.6505 9.0367 37.3083 7.94217 36.5816 7.11931L35.0825 8.44319C35.4183 8.82345 35.6698 9.43205 35.7243 10.3926L37.7211 10.2793ZM36.5858 7.12411C35.8404 6.26908 34.8319 5.86719 33.6758 5.86719V7.86719C34.3321 7.86719 34.7612 8.07467 35.0783 8.43839L36.5858 7.12411ZM44.9492 12.1289L45.7483 11.5276L45.0412 10.588L44.2274 11.4369L44.9492 12.1289ZM43.5898 13.5469L42.868 12.8548L42.5898 13.145V13.5469H43.5898ZM43.5898 18V19H44.5898V18H43.5898ZM41.4219 18H40.4219V19H41.4219V18ZM41.4219 0V-1H40.4219V0H41.4219ZM43.5898 0H44.5898V-1H43.5898V0ZM43.5898 10.8867H42.5898V13.6523L44.3586 11.5263L43.5898 10.8867ZM44.75 9.49219L44.0238 8.80473L44.0017 8.828L43.9812 8.85264L44.75 9.49219ZM48.6992 5.32031V4.32031H48.2689L47.973 4.63285L48.6992 5.32031ZM51.3359 5.32031L52.0677 6.00188L53.6339 4.32031H51.3359V5.32031ZM46.4023 10.6172L45.6706 9.93562L45.1018 10.5463L45.6008 11.2151L46.4023 10.6172ZM51.9102 18V19H53.9038L52.7117 17.402L51.9102 18ZM49.3672 18L48.5681 18.6013L48.8682 19H49.3672V18ZM44.2274 11.4369L42.868 12.8548L44.3117 14.2389L45.6711 12.8209L44.2274 11.4369ZM42.5898 13.5469V18H44.5898V13.5469H42.5898ZM43.5898 17H41.4219V19H43.5898V17ZM42.4219 18V0H40.4219V18H42.4219ZM41.4219 1H43.5898V-1H41.4219V1ZM42.5898 0V10.8867H44.5898V0H42.5898ZM44.3586 11.5263L45.5188 10.1317L43.9812 8.85264L42.8211 10.2472L44.3586 11.5263ZM45.4762 10.1796L49.4254 6.00777L47.973 4.63285L44.0238 8.80473L45.4762 10.1796ZM48.6992 6.32031H51.3359V4.32031H48.6992V6.32031ZM50.6042 4.63874L45.6706 9.93562L47.1341 11.2988L52.0677 6.00188L50.6042 4.63874ZM45.6008 11.2151L51.1086 18.598L52.7117 17.402L47.2039 10.0192L45.6008 11.2151ZM51.9102 17H49.3672V19H51.9102V17ZM50.1662 17.3987L45.7483 11.5276L44.1502 12.7302L48.5681 18.6013L50.1662 17.3987ZM53.7266 8.19141L52.8307 7.74701L52.8279 7.7527L53.7266 8.19141ZM55.7656 5.89453L55.2411 5.04313L55.2377 5.04525L55.7656 5.89453ZM62.9375 6.87891L62.1901 7.54327L62.1925 7.54599L62.9375 6.87891ZM63.8281 15.1289L62.9281 14.6932L62.9266 14.6962L63.8281 15.1289ZM61.8008 17.4141L61.2742 16.564L61.2708 16.5661L61.8008 17.4141ZM54.5938 16.4414L53.8463 17.1058L53.8488 17.1085L54.5938 16.4414ZM56.1523 15.1875L55.3567 15.7933L55.3603 15.7979L56.1523 15.1875ZM61.4023 15.1758L62.2006 15.7781L62.2032 15.7746L61.4023 15.1758ZM61.3789 8.16797L60.5815 8.77144L60.5876 8.77942L61.3789 8.16797ZM54 11.543C54 10.4337 54.2154 9.46944 54.6252 8.63011L52.8279 7.7527C52.2689 8.89775 52 10.1679 52 11.543H54ZM54.6224 8.6358C55.0392 7.79551 55.5976 7.17645 56.2936 6.74382L55.2377 5.04525C54.1993 5.69074 53.3983 6.60293 52.8307 7.74702L54.6224 8.6358ZM56.2901 6.74593C56.9938 6.31243 57.8052 6.08594 58.7539 6.08594V4.08594C57.4682 4.08594 56.2875 4.39851 55.2411 5.04313L56.2901 6.74593ZM58.7539 6.08594C60.2204 6.08594 61.3337 6.57986 62.1901 7.54327L63.6849 6.21454C62.4163 4.78733 60.7405 4.08594 58.7539 4.08594V6.08594ZM62.1925 7.54599C63.0621 8.51718 63.543 9.84946 63.543 11.6484H65.543C65.543 9.47866 64.9535 7.63125 63.6825 6.21183L62.1925 7.54599ZM63.543 11.6484V11.8008H65.543V11.6484H63.543ZM63.543 11.8008C63.543 12.9038 63.3308 13.8612 62.9281 14.6932L64.7282 15.5647C65.2785 14.4279 65.543 13.1666 65.543 11.8008H63.543ZM62.9266 14.6962C62.5367 15.5085 61.9875 16.122 61.2742 16.564L62.3274 18.2642C63.3796 17.6123 64.1821 16.7024 64.7296 15.5616L62.9266 14.6962ZM61.2708 16.5661C60.5712 17.0033 59.751 17.2344 58.7773 17.2344V19.2344C60.085 19.2344 61.2804 18.9186 62.3308 18.2621L61.2708 16.5661ZM58.7773 17.2344C57.3201 17.2344 56.2046 16.7414 55.3387 15.7743L53.8488 17.1085C55.1235 18.5321 56.797 19.2344 58.7773 19.2344V17.2344ZM55.3412 15.777C54.4767 14.8046 54 13.4782 54 11.6953H52C52 13.85 52.5858 15.6876 53.8463 17.1058L55.3412 15.777ZM54 11.6953V11.543H52V11.6953H54ZM54.1797 11.8008C54.1797 13.3572 54.5394 14.7199 55.3567 15.7933L56.9479 14.5817C56.4684 13.952 56.1797 13.0569 56.1797 11.8008H54.1797ZM55.3603 15.7979C56.2097 16.9001 57.3798 17.4648 58.7773 17.4648V15.4648C57.9874 15.4648 57.4075 15.178 56.9444 14.5771L55.3603 15.7979ZM58.7773 17.4648C60.1841 17.4648 61.3581 16.8947 62.2006 15.7781L60.6041 14.5735C60.1497 15.1756 59.5737 15.4648 58.7773 15.4648V17.4648ZM62.2032 15.7746C63.0264 14.6737 63.375 13.2226 63.375 11.543H61.375C61.375 12.9727 61.0751 13.9435 60.6015 14.5769L62.2032 15.7746ZM63.375 11.543C63.375 9.99377 63.0035 8.63489 62.1702 7.55652L60.5876 8.77942C61.0825 9.4198 61.375 10.3109 61.375 11.543H63.375ZM62.1763 7.56453C61.3298 6.44587 60.1588 5.86719 58.7539 5.86719V7.86719C59.5365 7.86719 60.1155 8.15569 60.5815 8.77141L62.1763 7.56453ZM58.7539 5.86719C57.3718 5.86719 56.2166 6.43818 55.372 7.53412L56.9561 8.75494C57.4241 8.14776 57.9954 7.86719 58.7539 7.86719V5.86719ZM55.372 7.53412C54.5302 8.62643 54.1797 10.0947 54.1797 11.8008H56.1797C56.1797 10.335 56.4854 9.36576 56.9561 8.75494L55.372 7.53412ZM71.2578 15.0586L70.3084 15.3728L71.2701 18.2786L72.2095 15.3655L71.2578 15.0586ZM74.3984 5.32031V4.32031H73.6702L73.4467 5.01338L74.3984 5.32031ZM76.6133 5.32031L77.5546 5.65786L78.0342 4.32031H76.6133V5.32031ZM72.0664 18V19H72.7702L73.0077 18.3375L72.0664 18ZM70.4141 18L69.4739 18.3406L69.7127 19H70.4141V18ZM65.8203 5.32031V4.32031H64.3944L64.8801 5.66094L65.8203 5.32031ZM68.0352 5.32031L68.9845 5.00614L68.7576 4.32031H68.0352V5.32031ZM72.2095 15.3655L75.3502 5.62725L73.4467 5.01338L70.3061 14.7517L72.2095 15.3655ZM74.3984 6.32031H76.6133V4.32031H74.3984V6.32031ZM75.672 4.98276L71.1251 17.6625L73.0077 18.3375L77.5546 5.65786L75.672 4.98276ZM72.0664 17H70.4141V19H72.0664V17ZM71.3543 17.6594L66.7605 4.97969L64.8801 5.66094L69.4739 18.3406L71.3543 17.6594ZM65.8203 6.32031H68.0352V4.32031H65.8203V6.32031ZM67.0858 5.63448L70.3084 15.3728L72.2072 14.7444L68.9845 5.00614L67.0858 5.63448ZM81.0547 18V19H82.0547V18H81.0547ZM78.8867 18H77.8867V19H78.8867V18ZM78.8867 5.32031V4.32031H77.8867V5.32031H78.8867ZM81.0547 5.32031H82.0547V4.32031H81.0547V5.32031ZM79.0273 1.06641L78.2852 0.39612L78.2792 0.402819L78.2733 0.409626L79.0273 1.06641ZM79.0273 2.83594L78.284 3.5049L78.2901 3.51163L78.2963 3.51826L79.0273 2.83594ZM81.0547 17H78.8867V19H81.0547V17ZM79.8867 18V5.32031H77.8867V18H79.8867ZM78.8867 6.32031H81.0547V4.32031H78.8867V6.32031ZM80.0547 5.32031V18H82.0547V5.32031H80.0547ZM79.7109 1.95703C79.7109 1.82228 79.7445 1.76556 79.7814 1.72319L78.2733 0.409626C77.8883 0.851624 77.7109 1.38866 77.7109 1.95703H79.7109ZM79.7694 1.73669C79.7699 1.73616 79.77 1.73617 79.7696 1.73645C79.7693 1.73674 79.7691 1.73686 79.7693 1.73674C79.7695 1.73661 79.7706 1.73589 79.7729 1.7347C79.7752 1.73349 79.7792 1.73161 79.7853 1.72933C79.8096 1.72013 79.8711 1.70312 79.9883 1.70312V-0.296875C79.3714 -0.296875 78.7454 -0.113388 78.2852 0.39612L79.7694 1.73669ZM79.9883 1.70312C80.1055 1.70312 80.167 1.72013 80.1913 1.72933C80.1973 1.73161 80.2013 1.73349 80.2037 1.7347C80.206 1.73589 80.2071 1.73661 80.2073 1.73674C80.2074 1.73686 80.2073 1.73674 80.2069 1.73645C80.2066 1.73617 80.2066 1.73616 80.2071 1.73669L81.6913 0.39612C81.2311 -0.113388 80.6051 -0.296875 79.9883 -0.296875V1.70312ZM80.2071 1.73669C80.2464 1.78021 80.2773 1.83231 80.2773 1.95703H82.2773C82.2773 1.37863 82.0895 0.836979 81.6913 0.39612L80.2071 1.73669ZM80.2773 1.95703C80.2773 2.08192 80.2467 2.123 80.2182 2.15362L81.6803 3.51826C82.0892 3.08013 82.2773 2.53527 82.2773 1.95703H80.2773ZM80.2182 2.15362C80.2228 2.14866 80.2236 2.15233 80.2013 2.16049C80.1739 2.17054 80.1088 2.1875 79.9883 2.1875V4.1875C80.5955 4.1875 81.2177 4.01387 81.6803 3.51826L80.2182 2.15362ZM79.9883 2.1875C79.8678 2.1875 79.8027 2.17054 79.7752 2.16049C79.7529 2.15233 79.7538 2.14866 79.7584 2.15362L78.2963 3.51826C78.7589 4.01387 79.3811 4.1875 79.9883 4.1875V2.1875ZM79.7706 2.16697C79.7443 2.13775 79.7109 2.09214 79.7109 1.95703H77.7109C77.7109 2.52505 77.8885 3.06537 78.284 3.5049L79.7706 2.16697ZM87.4766 2.25H88.4766V1.25H87.4766V2.25ZM87.4766 5.32031H86.4766V6.32031H87.4766V5.32031ZM89.8438 5.32031H90.8438V4.32031H89.8438V5.32031ZM89.8438 6.99609V7.99609H90.8438V6.99609H89.8438ZM87.4766 6.99609V5.99609H86.4766V6.99609H87.4766ZM87.793 16.0078L87.019 16.6411L87.0238 16.6469L87.0287 16.6527L87.793 16.0078ZM89.9023 16.2422H90.9023V15.0052L89.6928 15.2644L89.9023 16.2422ZM89.9023 18L90.1666 18.9645L90.9023 18.7629V18H89.9023ZM85.3086 6.99609H86.3086V5.99609H85.3086V6.99609ZM83 6.99609H82V7.99609H83V6.99609ZM83 5.32031V4.32031H82V5.32031H83ZM85.3086 5.32031V6.32031H86.3086V5.32031H85.3086ZM85.3086 2.25V1.25H84.3086V2.25H85.3086ZM86.4766 2.25V5.32031H88.4766V2.25H86.4766ZM87.4766 6.32031H89.8438V4.32031H87.4766V6.32031ZM88.8438 5.32031V6.99609H90.8438V5.32031H88.8438ZM89.8438 5.99609H87.4766V7.99609H89.8438V5.99609ZM86.4766 6.99609V14.8594H88.4766V6.99609H86.4766ZM86.4766 14.8594C86.4766 15.4825 86.6025 16.1319 87.019 16.6411L88.5669 15.3746C88.5616 15.3681 88.4766 15.2519 88.4766 14.8594H86.4766ZM87.0287 16.6527C87.5143 17.2282 88.2316 17.3828 88.8711 17.3828V15.3828C88.6939 15.3828 88.5946 15.3603 88.5492 15.3446C88.511 15.3313 88.5292 15.3297 88.5573 15.3629L87.0287 16.6527ZM88.8711 17.3828C89.226 17.3828 89.6504 17.3189 90.1119 17.22L89.6928 15.2644C89.2793 15.353 89.0162 15.3828 88.8711 15.3828V17.3828ZM88.9023 16.2422V18H90.9023V16.2422H88.9023ZM89.6381 17.0355C89.1456 17.1705 88.6799 17.2344 88.2383 17.2344V19.2344C88.8748 19.2344 89.5184 19.142 90.1666 18.9645L89.6381 17.0355ZM88.2383 17.2344C87.4799 17.2344 87.0661 17.0141 86.8126 16.7123L85.2812 17.9987C86.012 18.8687 87.0592 19.2344 88.2383 19.2344V17.2344ZM86.8126 16.7123C86.5233 16.3679 86.3086 15.7972 86.3086 14.8594H84.3086C84.3086 16.0778 84.5861 17.1712 85.2812 17.9987L86.8126 16.7123ZM86.3086 14.8594V6.99609H84.3086V14.8594H86.3086ZM85.3086 5.99609H83V7.99609H85.3086V5.99609ZM84 6.99609V5.32031H82V6.99609H84ZM83 6.32031H85.3086V4.32031H83V6.32031ZM86.3086 5.32031V2.25H84.3086V5.32031H86.3086ZM85.3086 3.25H87.4766V1.25H85.3086V3.25ZM93.4531 16.5469L92.7287 17.2363L92.7311 17.2388L93.4531 16.5469ZM92.5508 8.25L91.6521 7.8113L91.6507 7.81425L92.5508 8.25ZM94.5664 5.92969L95.1087 6.76987L95.1106 6.76865L94.5664 5.92969ZM102.594 12.2812V13.2812H103.594V12.2812H102.594ZM94.0039 12.2812V11.2812H92.9786L93.0042 12.3062L94.0039 12.2812ZM95.0938 15.3164L94.35 15.985L94.3572 15.9928L95.0938 15.3164ZM101.105 14.7539L101.72 13.9649L100.928 13.3482L100.314 14.1425L101.105 14.7539ZM102.43 15.7852L103.268 16.3306L103.769 15.5606L103.044 14.9962L102.43 15.7852ZM95.1758 7.82812L95.9051 8.51238L95.9092 8.50789L95.1758 7.82812ZM94.0742 10.5L93.0816 10.3785L92.9443 11.5H94.0742V10.5ZM100.426 10.5V11.5H101.426V10.5H100.426ZM100.426 10.3359H101.426V10.3076L101.424 10.2793L100.426 10.3359ZM99.5352 7.78125L98.7814 8.4384L98.7856 8.44319L99.5352 7.78125ZM97.6484 17.2344C96.1712 17.2344 95.0442 16.7618 94.1751 15.855L92.7311 17.2388C94.0183 18.5819 95.6881 19.2344 97.6484 19.2344V17.2344ZM94.1775 15.8575C93.312 14.948 92.8359 13.7025 92.8359 12.0117H90.8359C90.8359 14.1022 91.438 15.8801 92.7287 17.2363L94.1775 15.8575ZM92.8359 12.0117V11.6133H90.8359V12.0117H92.8359ZM92.8359 11.6133C92.8359 10.4837 93.0493 9.51526 93.4509 8.68575L91.6507 7.81425C91.0992 8.95349 90.8359 10.2272 90.8359 11.6133H92.8359ZM93.4494 8.6887C93.8604 7.84682 94.4146 7.21787 95.1087 6.76987L94.0241 5.0895C92.9994 5.75088 92.2099 6.6688 91.6521 7.8113L93.4494 8.6887ZM95.1106 6.76865C95.8201 6.3084 96.5694 6.08594 97.3789 6.08594V4.08594C96.1728 4.08594 95.047 4.42597 94.0222 5.09073L95.1106 6.76865ZM97.3789 6.08594C98.7853 6.08594 99.7652 6.53621 100.458 7.35881L101.988 6.07088C100.852 4.7216 99.2694 4.08594 97.3789 4.08594V6.08594ZM100.458 7.35881C101.167 8.20119 101.594 9.4925 101.594 11.3789H103.594C103.594 9.21844 103.107 7.40037 101.988 6.07088L100.458 7.35881ZM101.594 11.3789V12.2812H103.594V11.3789H101.594ZM102.594 11.2812H94.0039V13.2812H102.594V11.2812ZM93.0042 12.3062C93.0402 13.7441 93.4648 15.0002 94.3501 15.985L95.8374 14.6479C95.3321 14.0858 95.0301 13.3184 95.0036 12.2563L93.0042 12.3062ZM94.3572 15.9928C95.2575 16.9732 96.4193 17.4648 97.7656 17.4648V15.4648C96.9557 15.4648 96.3362 15.1909 95.8303 14.64L94.3572 15.9928ZM97.7656 17.4648C98.6667 17.4648 99.4999 17.2804 100.218 16.858L99.2039 15.1342C98.8595 15.3368 98.3958 15.4648 97.7656 15.4648V17.4648ZM100.218 16.858C100.865 16.4773 101.425 15.976 101.897 15.3654L100.314 14.1425C99.9892 14.5631 99.6191 14.8899 99.2039 15.1342L100.218 16.858ZM100.491 15.5429L101.815 16.5741L103.044 14.9962L101.72 13.9649L100.491 15.5429ZM101.592 15.2397C100.733 16.5597 99.4716 17.2344 97.6484 17.2344V19.2344C100.075 19.2344 102.002 18.2762 103.268 16.3306L101.592 15.2397ZM97.3789 5.86719C96.2261 5.86719 95.2257 6.30314 94.4424 7.14836L95.9092 8.50789C96.3133 8.07186 96.7817 7.86719 97.3789 7.86719V5.86719ZM94.4465 7.14388C93.6659 7.97585 93.2395 9.08882 93.0816 10.3785L95.0668 10.6215C95.1901 9.6143 95.4981 8.94603 95.905 8.51237L94.4465 7.14388ZM94.0742 11.5H100.426V9.5H94.0742V11.5ZM101.426 10.5V10.3359H99.4258V10.5H101.426ZM101.424 10.2793C101.354 9.0367 101.011 7.94217 100.285 7.11931L98.7856 8.44319C99.1214 8.82345 99.3729 9.43205 99.4274 10.3926L101.424 10.2793ZM100.289 7.12411C99.5435 6.26908 98.5351 5.86719 97.3789 5.86719V7.86719C98.0352 7.86719 98.4643 8.07467 98.7814 8.43839L100.289 7.12411ZM111.406 18H110.406V19H111.406V18ZM111.406 0.9375V-0.0625H110.406V0.9375H111.406ZM121.156 2.08594L120.521 2.85787L120.524 2.86047L121.156 2.08594ZM121.883 7.60547L122.685 8.20218L122.689 8.19727L121.883 7.60547ZM120.031 9.02344L119.636 8.10477L117.034 9.22364L119.762 9.98649L120.031 9.02344ZM122.211 10.5L121.404 11.0903L121.411 11.1L122.211 10.5ZM113.656 10.0195V9.01953H112.656V10.0195H113.656ZM113.656 16.1602H112.656V17.1602H113.656V16.1602ZM119.844 15.3516L120.511 16.0963L120.512 16.0958L119.844 15.3516ZM113.656 8.21484H112.656V9.21484H113.656V8.21484ZM119.41 7.47656L118.772 6.70667L118.767 6.71086L119.41 7.47656ZM119.48 3.43359L118.863 4.21994L118.87 4.22538L119.48 3.43359ZM113.656 2.78906V1.78906H112.656V2.78906H113.656ZM112.406 18V0.9375H110.406V18H112.406ZM111.406 1.9375H116.984V-0.0625H111.406V1.9375ZM116.984 1.9375C118.723 1.9375 119.844 2.3007 120.521 2.85787L121.792 1.31401C120.609 0.339926 118.949 -0.0625 116.984 -0.0625V1.9375ZM120.524 2.86047C121.174 3.39144 121.562 4.20592 121.562 5.48438H123.562C123.562 3.76283 123.014 2.31168 121.789 1.31141L120.524 2.86047ZM121.562 5.48438C121.562 6.07764 121.398 6.5754 121.077 7.01366L122.689 8.19727C123.273 7.40116 123.562 6.48486 123.562 5.48438H121.562ZM121.08 7.00877C120.744 7.46045 120.276 7.82988 119.636 8.10477L120.426 9.94211C121.349 9.54512 122.115 8.96924 122.685 8.20217L121.08 7.00877ZM119.762 9.98649C120.482 10.188 121.014 10.5567 121.404 11.0902L123.018 9.90977C122.346 8.99016 121.424 8.37451 120.301 8.06039L119.762 9.98649ZM121.411 11.1C121.806 11.6261 122.02 12.2688 122.02 13.0781H124.02C124.02 11.8875 123.694 10.8114 123.011 9.9L121.411 11.1ZM122.02 13.0781C122.02 14.3723 121.612 15.283 120.87 15.9375L122.193 17.4375C123.435 16.342 124.02 14.8464 124.02 13.0781H122.02ZM120.87 15.9375C120.118 16.6002 118.984 17 117.324 17V19C119.29 19 120.96 18.5248 122.193 17.4375L120.87 15.9375ZM117.324 17H111.406V19H117.324V17ZM112.656 10.0195V16.1602H114.656V10.0195H112.656ZM113.656 17.1602H117.371V15.1602H113.656V17.1602ZM117.371 17.1602C118.589 17.1602 119.677 16.8436 120.511 16.0963L119.176 14.6068C118.807 14.9376 118.247 15.1602 117.371 15.1602V17.1602ZM120.512 16.0958C121.368 15.3275 121.758 14.2874 121.758 13.1016H119.758C119.758 13.8219 119.539 14.2818 119.176 14.6073L120.512 16.0958ZM121.758 13.1016C121.758 11.8975 121.427 10.817 120.597 10.054C119.783 9.30548 118.658 9.01953 117.406 9.01953V11.0195C118.389 11.0195 118.94 11.2473 119.243 11.5261C119.53 11.7904 119.758 12.2509 119.758 13.1016H121.758ZM117.406 9.01953H113.656V11.0195H117.406V9.01953ZM113.656 9.21484H117.055V7.21484H113.656V9.21484ZM117.055 9.21484C118.206 9.21484 119.241 8.92478 120.053 8.24227L118.767 6.71086C118.408 7.01272 117.873 7.21484 117.055 7.21484V9.21484ZM120.048 8.24644C120.895 7.54488 121.301 6.58231 121.301 5.47266H119.301C119.301 6.0505 119.113 6.42387 118.772 6.70668L120.048 8.24644ZM121.301 5.47266C121.301 4.34392 120.964 3.31535 120.091 2.64181L118.87 4.22538C119.09 4.39558 119.301 4.72639 119.301 5.47266H121.301ZM120.098 2.64728C119.297 2.01737 118.199 1.78906 116.984 1.78906V3.78906C118.004 3.78906 118.571 3.99045 118.863 4.21991L120.098 2.64728ZM116.984 1.78906H113.656V3.78906H116.984V1.78906ZM112.656 2.78906V8.21484H114.656V2.78906H112.656ZM128.375 18V19H129.375V18H128.375ZM126.207 18H125.207V19H126.207V18ZM126.207 5.32031V4.32031H125.207V5.32031H126.207ZM128.375 5.32031H129.375V4.32031H128.375V5.32031ZM126.348 1.06641L125.606 0.39612L125.6 0.402819L125.594 0.409626L126.348 1.06641ZM126.348 2.83594L125.604 3.5049L125.61 3.51163L125.617 3.51826L126.348 2.83594ZM128.375 17H126.207V19H128.375V17ZM127.207 18V5.32031H125.207V18H127.207ZM126.207 6.32031H128.375V4.32031H126.207V6.32031ZM127.375 5.32031V18H129.375V5.32031H127.375ZM127.031 1.95703C127.031 1.82228 127.065 1.76556 127.102 1.72319L125.594 0.409626C125.209 0.851624 125.031 1.38866 125.031 1.95703H127.031ZM127.09 1.73669C127.09 1.73616 127.09 1.73617 127.09 1.73645C127.09 1.73674 127.089 1.73686 127.09 1.73674C127.09 1.73661 127.091 1.73589 127.093 1.7347C127.096 1.73349 127.1 1.73161 127.106 1.72933C127.13 1.72013 127.191 1.70312 127.309 1.70312V-0.296875C126.692 -0.296875 126.066 -0.113388 125.606 0.39612L127.09 1.73669ZM127.309 1.70312C127.426 1.70312 127.487 1.72013 127.512 1.72933C127.518 1.73161 127.522 1.73349 127.524 1.7347C127.526 1.73589 127.527 1.73661 127.528 1.73674C127.528 1.73686 127.528 1.73674 127.527 1.73645C127.527 1.73617 127.527 1.73616 127.527 1.73669L129.012 0.39612C128.551 -0.113388 127.925 -0.296875 127.309 -0.296875V1.70312ZM127.527 1.73669C127.567 1.78021 127.598 1.83231 127.598 1.95703H129.598C129.598 1.37863 129.41 0.836979 129.012 0.39612L127.527 1.73669ZM127.598 1.95703C127.598 2.08192 127.567 2.123 127.538 2.15362L129.001 3.51826C129.41 3.08013 129.598 2.53527 129.598 1.95703H127.598ZM127.538 2.15362C127.543 2.14866 127.544 2.15233 127.522 2.16049C127.494 2.17054 127.429 2.1875 127.309 2.1875V4.1875C127.916 4.1875 128.538 4.01387 129.001 3.51826L127.538 2.15362ZM127.309 2.1875C127.188 2.1875 127.123 2.17054 127.096 2.16049C127.073 2.15233 127.074 2.14866 127.079 2.15362L125.617 3.51826C126.079 4.01387 126.701 4.1875 127.309 4.1875V2.1875ZM127.091 2.16697C127.065 2.13775 127.031 2.09214 127.031 1.95703H125.031C125.031 2.52505 125.209 3.06537 125.604 3.5049L127.091 2.16697ZM134.211 18V19H135.211V18H134.211ZM132.043 18H131.043V19H132.043V18ZM132.043 0V-1H131.043V0H132.043ZM134.211 0H135.211V-1H134.211V0ZM134.211 17H132.043V19H134.211V17ZM133.043 18V0H131.043V18H133.043ZM132.043 1H134.211V-1H132.043V1ZM133.211 0V18H135.211V0H133.211ZM139.93 5.32031H140.93V4.32031H139.93V5.32031ZM135.289 22.9102H134.289V23.6222L134.962 23.8551L135.289 22.9102ZM135.289 21.1758L135.532 20.2056L134.289 19.895V21.1758H135.289ZM137.375 20.8711L136.668 20.164L136.657 20.1747L136.647 20.1857L137.375 20.8711ZM137.762 5.32031V4.32031H136.762V5.32031H137.762ZM137.855 1.07812L137.103 0.419619L137.101 0.421344L137.855 1.07812ZM138.93 5.32031V19.4648H140.93V5.32031H138.93ZM138.93 19.4648C138.93 20.5523 138.681 21.1812 138.36 21.5352C138.056 21.8707 137.538 22.1211 136.613 22.1211V24.1211C137.899 24.1211 139.04 23.7621 139.841 22.8789C140.626 22.0141 140.93 20.8149 140.93 19.4648H138.93ZM136.613 22.1211C136.236 22.1211 135.906 22.0656 135.616 21.9652L134.962 23.8551C135.484 24.0359 136.037 24.1211 136.613 24.1211V22.1211ZM136.289 22.9102V21.1758H134.289V22.9102H136.289ZM135.047 22.1459C135.408 22.2362 135.827 22.2695 136.273 22.2695V20.2695C135.908 20.2695 135.67 20.2403 135.532 20.2056L135.047 22.1459ZM136.273 22.2695C136.939 22.2695 137.608 22.0826 138.103 21.5565L136.647 20.1857C136.642 20.1908 136.577 20.2695 136.273 20.2695V22.2695ZM138.082 21.5782C138.629 21.0316 138.762 20.2358 138.762 19.5117H136.762C136.762 19.7755 136.735 19.953 136.703 20.0643C136.672 20.1736 136.646 20.1857 136.668 20.164L138.082 21.5782ZM138.762 19.5117V5.32031H136.762V19.5117H138.762ZM137.762 6.32031H139.93V4.32031H137.762V6.32031ZM138.539 1.95703C138.539 1.83631 138.569 1.78161 138.61 1.73491L137.101 0.421344C136.72 0.859013 136.539 1.39026 136.539 1.95703H138.539ZM138.608 1.73663C138.61 1.7345 138.611 1.73235 138.624 1.72693C138.643 1.71948 138.697 1.70312 138.805 1.70312V-0.296875C138.179 -0.296875 137.557 -0.0991788 137.103 0.41962L138.608 1.73663ZM138.805 1.70312C138.922 1.70312 138.983 1.72013 139.008 1.72933C139.014 1.73161 139.018 1.73349 139.02 1.7347C139.022 1.73589 139.023 1.73661 139.024 1.73674C139.024 1.73686 139.024 1.73674 139.023 1.73645C139.023 1.73617 139.023 1.73616 139.024 1.73669L140.508 0.39612C140.048 -0.113388 139.422 -0.296875 138.805 -0.296875V1.70312ZM139.024 1.73669C139.063 1.78021 139.094 1.83231 139.094 1.95703H141.094C141.094 1.37863 140.906 0.836979 140.508 0.39612L139.024 1.73669ZM139.094 1.95703C139.094 2.08192 139.063 2.123 139.035 2.15362L140.497 3.51826C140.906 3.08013 141.094 2.53527 141.094 1.95703H139.094ZM139.035 2.15362C139.039 2.14866 139.04 2.15233 139.018 2.16049C138.99 2.17054 138.925 2.1875 138.805 2.1875V4.1875C139.412 4.1875 140.034 4.01387 140.497 3.51826L139.035 2.15362ZM138.805 2.1875C138.684 2.1875 138.621 2.17042 138.598 2.16186C138.581 2.15544 138.588 2.15547 138.599 2.16697L137.112 3.5049C137.571 4.01465 138.2 4.1875 138.805 4.1875V2.1875ZM138.599 2.16697C138.572 2.13775 138.539 2.09214 138.539 1.95703H136.539C136.539 2.52505 136.717 3.06537 137.112 3.5049L138.599 2.16697ZM146.973 12.1289L147.772 11.5276L147.065 10.588L146.251 11.4369L146.973 12.1289ZM145.613 13.5469L144.891 12.8548L144.613 13.145V13.5469H145.613ZM145.613 18V19H146.613V18H145.613ZM143.445 18H142.445V19H143.445V18ZM143.445 0V-1H142.445V0H143.445ZM145.613 0H146.613V-1H145.613V0ZM145.613 10.8867H144.613V13.6523L146.382 11.5263L145.613 10.8867ZM146.773 9.49219L146.047 8.80473L146.025 8.828L146.005 8.85264L146.773 9.49219ZM150.723 5.32031V4.32031H150.292L149.996 4.63285L150.723 5.32031ZM153.359 5.32031L154.091 6.00188L155.657 4.32031H153.359V5.32031ZM148.426 10.6172L147.694 9.93562L147.125 10.5463L147.624 11.2151L148.426 10.6172ZM153.934 18V19H155.927L154.735 17.402L153.934 18ZM151.391 18L150.592 18.6013L150.892 19H151.391V18ZM146.251 11.4369L144.891 12.8548L146.335 14.2389L147.695 12.8209L146.251 11.4369ZM144.613 13.5469V18H146.613V13.5469H144.613ZM145.613 17H143.445V19H145.613V17ZM144.445 18V0H142.445V18H144.445ZM143.445 1H145.613V-1H143.445V1ZM144.613 0V10.8867H146.613V0H144.613ZM146.382 11.5263L147.542 10.1317L146.005 8.85264L144.845 10.2472L146.382 11.5263ZM147.5 10.1796L151.449 6.00777L149.996 4.63285L146.047 8.80473L147.5 10.1796ZM150.723 6.32031H153.359V4.32031H150.723V6.32031ZM152.628 4.63874L147.694 9.93562L149.158 11.2988L154.091 6.00188L152.628 4.63874ZM147.624 11.2151L153.132 18.598L154.735 17.402L149.227 10.0192L147.624 11.2151ZM153.934 17H151.391V19H153.934V17ZM152.19 17.3987L147.772 11.5276L146.174 12.7302L150.592 18.6013L152.19 17.3987ZM156.43 16.5469L155.705 17.2363L155.708 17.2388L156.43 16.5469ZM155.527 8.25L154.629 7.8113L154.627 7.81425L155.527 8.25ZM157.543 5.92969L158.085 6.76987L158.087 6.76865L157.543 5.92969ZM165.57 12.2812V13.2812H166.57V12.2812H165.57ZM156.98 12.2812V11.2812H155.955L155.981 12.3062L156.98 12.2812ZM158.07 15.3164L157.327 15.985L157.334 15.9928L158.07 15.3164ZM164.082 14.7539L164.696 13.9649L163.905 13.3482L163.291 14.1425L164.082 14.7539ZM165.406 15.7852L166.244 16.3306L166.745 15.5606L166.021 14.9962L165.406 15.7852ZM158.152 7.82812L158.882 8.51238L158.886 8.50789L158.152 7.82812ZM157.051 10.5L156.058 10.3785L155.921 11.5H157.051V10.5ZM163.402 10.5V11.5H164.402V10.5H163.402ZM163.402 10.3359H164.402V10.3076L164.401 10.2793L163.402 10.3359ZM162.512 7.78125L161.758 8.4384L161.762 8.44319L162.512 7.78125ZM160.625 17.2344C159.148 17.2344 158.021 16.7618 157.152 15.855L155.708 17.2388C156.995 18.5819 158.665 19.2344 160.625 19.2344V17.2344ZM157.154 15.8575C156.289 14.948 155.812 13.7025 155.812 12.0117H153.812C153.812 14.1022 154.415 15.8801 155.705 17.2363L157.154 15.8575ZM155.812 12.0117V11.6133H153.812V12.0117H155.812ZM155.812 11.6133C155.812 10.4837 156.026 9.51526 156.427 8.68575L154.627 7.81425C154.076 8.95349 153.812 10.2272 153.812 11.6133H155.812ZM156.426 8.6887C156.837 7.84682 157.391 7.21787 158.085 6.76987L157.001 5.0895C155.976 5.75088 155.186 6.6688 154.629 7.8113L156.426 8.6887ZM158.087 6.76865C158.797 6.3084 159.546 6.08594 160.355 6.08594V4.08594C159.149 4.08594 158.024 4.42597 156.999 5.09073L158.087 6.76865ZM160.355 6.08594C161.762 6.08594 162.742 6.53621 163.434 7.35881L164.964 6.07088C163.829 4.7216 162.246 4.08594 160.355 4.08594V6.08594ZM163.434 7.35881C164.143 8.20119 164.57 9.4925 164.57 11.3789H166.57C166.57 9.21844 166.083 7.40037 164.964 6.07088L163.434 7.35881ZM164.57 11.3789V12.2812H166.57V11.3789H164.57ZM165.57 11.2812H156.98V13.2812H165.57V11.2812ZM155.981 12.3062C156.017 13.7441 156.441 15.0002 157.327 15.985L158.814 14.6479C158.309 14.0858 158.007 13.3184 157.98 12.2563L155.981 12.3062ZM157.334 15.9928C158.234 16.9732 159.396 17.4648 160.742 17.4648V15.4648C159.932 15.4648 159.313 15.1909 158.807 14.64L157.334 15.9928ZM160.742 17.4648C161.643 17.4648 162.476 17.2804 163.195 16.858L162.18 15.1342C161.836 15.3368 161.372 15.4648 160.742 15.4648V17.4648ZM163.195 16.858C163.842 16.4773 164.401 15.976 164.873 15.3654L163.291 14.1425C162.966 14.5631 162.596 14.8899 162.18 15.1342L163.195 16.858ZM163.468 15.5429L164.792 16.5741L166.021 14.9962L164.696 13.9649L163.468 15.5429ZM164.568 15.2397C163.709 16.5597 162.448 17.2344 160.625 17.2344V19.2344C163.052 19.2344 164.978 18.2762 166.244 16.3306L164.568 15.2397ZM160.355 5.86719C159.203 5.86719 158.202 6.30314 157.419 7.14836L158.886 8.50789C159.29 8.07186 159.758 7.86719 160.355 7.86719V5.86719ZM157.423 7.14388C156.642 7.97585 156.216 9.08882 156.058 10.3785L158.043 10.6215C158.167 9.6143 158.475 8.94603 158.882 8.51237L157.423 7.14388ZM157.051 11.5H163.402V9.5H157.051V11.5ZM164.402 10.5V10.3359H162.402V10.5H164.402ZM164.401 10.2793C164.33 9.0367 163.988 7.94217 163.261 7.11931L161.762 8.44319C162.098 8.82345 162.349 9.43205 162.404 10.3926L164.401 10.2793ZM163.265 7.12411C162.52 6.26908 161.512 5.86719 160.355 5.86719V7.86719C161.012 7.86719 161.441 8.07467 161.758 8.43839L163.265 7.12411Z" fill="black"/>
<path d="M6.79297 16.1602H5.79297V17.1602H6.79297V16.1602ZM14.8789 16.1602H15.8789V15.1602H14.8789V16.1602ZM14.8789 18V19H15.8789V18H14.8789ZM4.53125 18H3.53125V19H4.53125V18ZM4.53125 0.9375V-0.0625H3.53125V0.9375H4.53125ZM6.79297 0.9375H7.79297V-0.0625H6.79297V0.9375ZM6.79297 17.1602H14.8789V15.1602H6.79297V17.1602ZM13.8789 16.1602V18H15.8789V16.1602H13.8789ZM14.8789 17H4.53125V19H14.8789V17ZM5.53125 18V0.9375H3.53125V18H5.53125ZM4.53125 1.9375H6.79297V-0.0625H4.53125V1.9375ZM5.79297 0.9375V16.1602H7.79297V0.9375H5.79297ZM19.4609 18V19H20.4609V18H19.4609ZM17.293 18H16.293V19H17.293V18ZM17.293 5.32031V4.32031H16.293V5.32031H17.293ZM19.4609 5.32031H20.4609V4.32031H19.4609V5.32031ZM17.4336 1.06641L16.6915 0.39612L16.6854 0.402819L16.6795 0.409626L17.4336 1.06641ZM17.4336 2.83594L16.6903 3.5049L16.6964 3.51163L16.7025 3.51826L17.4336 2.83594ZM19.4609 17H17.293V19H19.4609V17ZM18.293 18V5.32031H16.293V18H18.293ZM17.293 6.32031H19.4609V4.32031H17.293V6.32031ZM18.4609 5.32031V18H20.4609V5.32031H18.4609ZM18.1172 1.95703C18.1172 1.82228 18.1508 1.76556 18.1877 1.72319L16.6795 0.409626C16.2945 0.851624 16.1172 1.38866 16.1172 1.95703H18.1172ZM18.1757 1.73669C18.1762 1.73616 18.1762 1.73617 18.1759 1.73645C18.1756 1.73674 18.1754 1.73686 18.1756 1.73674C18.1757 1.73661 18.1768 1.73589 18.1791 1.7347C18.1815 1.73349 18.1855 1.73161 18.1915 1.72933C18.2158 1.72013 18.2773 1.70312 18.3945 1.70312V-0.296875C17.7777 -0.296875 17.1517 -0.113388 16.6915 0.39612L18.1757 1.73669ZM18.3945 1.70312C18.5117 1.70312 18.5732 1.72013 18.5975 1.72933C18.6036 1.73161 18.6076 1.73349 18.6099 1.7347C18.6122 1.73589 18.6133 1.73661 18.6135 1.73674C18.6137 1.73686 18.6135 1.73674 18.6132 1.73645C18.6128 1.73617 18.6129 1.73616 18.6134 1.73669L20.0976 0.39612C19.6374 -0.113388 19.0114 -0.296875 18.3945 -0.296875V1.70312ZM18.6134 1.73669C18.6527 1.78021 18.6836 1.83231 18.6836 1.95703H20.6836C20.6836 1.37863 20.4958 0.836979 20.0976 0.39612L18.6134 1.73669ZM18.6836 1.95703C18.6836 2.08192 18.653 2.123 18.6244 2.15362L20.0865 3.51826C20.4954 3.08013 20.6836 2.53527 20.6836 1.95703H18.6836ZM18.6244 2.15362C18.629 2.14866 18.6299 2.15233 18.6076 2.16049C18.5801 2.17054 18.515 2.1875 18.3945 2.1875V4.1875C19.0017 4.1875 19.624 4.01387 20.0865 3.51826L18.6244 2.15362ZM18.3945 2.1875C18.2741 2.1875 18.209 2.17054 18.1815 2.16049C18.1592 2.15233 18.16 2.14866 18.1646 2.15362L16.7025 3.51826C17.1651 4.01387 17.7874 4.1875 18.3945 4.1875V2.1875ZM18.1769 2.16697C18.1506 2.13775 18.1172 2.09214 18.1172 1.95703H16.1172C16.1172 2.52505 16.2947 3.06537 16.6903 3.5049L18.1769 2.16697ZM25.1797 5.32031H26.1797V4.32031H25.1797V5.32031ZM20.5391 22.9102H19.5391V23.6222L20.212 23.8551L20.5391 22.9102ZM20.5391 21.1758L20.7816 20.2056L19.5391 19.895V21.1758H20.5391ZM22.625 20.8711L21.9179 20.164L21.9072 20.1747L21.8968 20.1857L22.625 20.8711ZM23.0117 5.32031V4.32031H22.0117V5.32031H23.0117ZM23.1055 1.07812L22.3529 0.419619L22.3514 0.421344L23.1055 1.07812ZM24.1797 5.32031V19.4648H26.1797V5.32031H24.1797ZM24.1797 19.4648C24.1797 20.5523 23.931 21.1812 23.6099 21.5352C23.3056 21.8707 22.7881 22.1211 21.8633 22.1211V24.1211C23.1494 24.1211 24.2901 23.7621 25.0913 22.8789C25.8756 22.0141 26.1797 20.8149 26.1797 19.4648H24.1797ZM21.8633 22.1211C21.4861 22.1211 21.1564 22.0656 20.8662 21.9652L20.212 23.8551C20.7342 24.0359 21.2874 24.1211 21.8633 24.1211V22.1211ZM21.5391 22.9102V21.1758H19.5391V22.9102H21.5391ZM20.2965 22.1459C20.6577 22.2362 21.0766 22.2695 21.5234 22.2695V20.2695C21.1578 20.2695 20.9204 20.2403 20.7816 20.2056L20.2965 22.1459ZM21.5234 22.2695C22.1891 22.2695 22.858 22.0826 23.3532 21.5565L21.8968 20.1857C21.892 20.1908 21.8265 20.2695 21.5234 20.2695V22.2695ZM23.3321 21.5782C23.8787 21.0316 24.0117 20.2358 24.0117 19.5117H22.0117C22.0117 19.7755 21.9848 19.953 21.9532 20.0643C21.9221 20.1736 21.8962 20.1857 21.9179 20.164L23.3321 21.5782ZM24.0117 19.5117V5.32031H22.0117V19.5117H24.0117ZM23.0117 6.32031H25.1797V4.32031H23.0117V6.32031ZM23.7891 1.95703C23.7891 1.83631 23.8189 1.78161 23.8596 1.73491L22.3514 0.421344C21.9702 0.859013 21.7891 1.39026 21.7891 1.95703H23.7891ZM23.858 1.73663C23.8599 1.7345 23.8605 1.73235 23.8743 1.72693C23.8931 1.71948 23.9469 1.70312 24.0547 1.70312V-0.296875C23.4291 -0.296875 22.8068 -0.0991788 22.3529 0.41962L23.858 1.73663ZM24.0547 1.70312C24.1719 1.70312 24.2334 1.72013 24.2577 1.72933C24.2637 1.73161 24.2677 1.73349 24.2701 1.7347C24.2724 1.73589 24.2735 1.73661 24.2737 1.73674C24.2738 1.73686 24.2737 1.73674 24.2733 1.73645C24.273 1.73617 24.273 1.73616 24.2735 1.73669L25.7577 0.39612C25.2975 -0.113388 24.6715 -0.296875 24.0547 -0.296875V1.70312ZM24.2735 1.73669C24.3128 1.78021 24.3438 1.83231 24.3438 1.95703H26.3438C26.3438 1.37863 26.1559 0.836979 25.7577 0.39612L24.2735 1.73669ZM24.3438 1.95703C24.3438 2.08192 24.3131 2.123 24.2846 2.15362L25.7467 3.51826C26.1556 3.08013 26.3438 2.53527 26.3438 1.95703H24.3438ZM24.2846 2.15362C24.2892 2.14866 24.29 2.15233 24.2677 2.16049C24.2403 2.17054 24.1752 2.1875 24.0547 2.1875V4.1875C24.6619 4.1875 25.2841 4.01387 25.7467 3.51826L24.2846 2.15362ZM24.0547 2.1875C23.9338 2.1875 23.8714 2.17042 23.8483 2.16186C23.831 2.15544 23.8384 2.15547 23.8488 2.16697L22.3622 3.5049C22.821 4.01465 23.4499 4.1875 24.0547 4.1875V2.1875ZM23.8488 2.16697C23.8225 2.13775 23.7891 2.09214 23.7891 1.95703H21.7891C21.7891 2.52505 21.9666 3.06537 22.3622 3.5049L23.8488 2.16697ZM29.75 16.5469L29.0256 17.2363L29.028 17.2388L29.75 16.5469ZM28.8477 8.25L27.949 7.8113L27.9476 7.81425L28.8477 8.25ZM30.8633 5.92969L31.4056 6.76987L31.4075 6.76865L30.8633 5.92969ZM38.8906 12.2812V13.2812H39.8906V12.2812H38.8906ZM30.3008 12.2812V11.2812H29.2755L29.3011 12.3062L30.3008 12.2812ZM31.3906 15.3164L30.6469 15.985L30.6541 15.9928L31.3906 15.3164ZM37.4023 14.7539L38.0168 13.9649L37.2248 13.3482L36.6111 14.1425L37.4023 14.7539ZM38.7266 15.7852L39.5647 16.3306L40.0658 15.5606L39.341 14.9962L38.7266 15.7852ZM31.4727 7.82812L32.2019 8.51238L32.2061 8.50789L31.4727 7.82812ZM30.3711 10.5L29.3785 10.3785L29.2412 11.5H30.3711V10.5ZM36.7227 10.5V11.5H37.7227V10.5H36.7227ZM36.7227 10.3359H37.7227V10.3076L37.7211 10.2793L36.7227 10.3359ZM35.832 7.78125L35.0782 8.4384L35.0825 8.44319L35.832 7.78125ZM33.9453 17.2344C32.4681 17.2344 31.341 16.7618 30.472 15.855L29.028 17.2388C30.3152 18.5819 31.985 19.2344 33.9453 19.2344V17.2344ZM30.4744 15.8575C29.6088 14.948 29.1328 13.7025 29.1328 12.0117H27.1328C27.1328 14.1022 27.7349 15.8801 29.0256 17.2363L30.4744 15.8575ZM29.1328 12.0117V11.6133H27.1328V12.0117H29.1328ZM29.1328 11.6133C29.1328 10.4837 29.3461 9.51526 29.7477 8.68575L27.9476 7.81425C27.396 8.95349 27.1328 10.2272 27.1328 11.6133H29.1328ZM29.7463 8.6887C30.1573 7.84682 30.7115 7.21787 31.4056 6.76987L30.321 5.0895C29.2963 5.75088 28.5068 6.6688 27.949 7.8113L29.7463 8.6887ZM31.4075 6.76865C32.117 6.3084 32.8663 6.08594 33.6758 6.08594V4.08594C32.4697 4.08594 31.3439 4.42597 30.3191 5.09073L31.4075 6.76865ZM33.6758 6.08594C35.0821 6.08594 36.0621 6.53621 36.7545 7.35881L38.2846 6.07088C37.1489 4.7216 35.5663 4.08594 33.6758 4.08594V6.08594ZM36.7545 7.35881C37.4635 8.20119 37.8906 9.4925 37.8906 11.3789H39.8906C39.8906 9.21844 39.4037 7.40037 38.2846 6.07088L36.7545 7.35881ZM37.8906 11.3789V12.2812H39.8906V11.3789H37.8906ZM38.8906 11.2812H30.3008V13.2812H38.8906V11.2812ZM29.3011 12.3062C29.337 13.7441 29.7616 15.0002 30.647 15.985L32.1343 14.6479C31.629 14.0858 31.327 13.3184 31.3005 12.2563L29.3011 12.3062ZM30.6541 15.9928C31.5544 16.9732 32.7162 17.4648 34.0625 17.4648V15.4648C33.2526 15.4648 32.6331 15.1909 32.1272 14.64L30.6541 15.9928ZM34.0625 17.4648C34.9636 17.4648 35.7968 17.2804 36.5148 16.858L35.5008 15.1342C35.1563 15.3368 34.6927 15.4648 34.0625 15.4648V17.4648ZM36.5148 16.858C37.1621 16.4773 37.7218 15.976 38.1936 15.3654L36.6111 14.1425C36.286 14.5631 35.916 14.8899 35.5008 15.1342L36.5148 16.858ZM36.7879 15.5429L38.1121 16.5741L39.341 14.9962L38.0168 13.9649L36.7879 15.5429ZM37.8884 15.2397C37.0295 16.5597 35.7685 17.2344 33.9453 17.2344V19.2344C36.3721 19.2344 38.2987 18.2762 39.5647 16.3306L37.8884 15.2397ZM33.6758 5.86719C32.5229 5.86719 31.5226 6.30314 30.7392 7.14836L32.2061 8.50789C32.6102 8.07186 33.0786 7.86719 33.6758 7.86719V5.86719ZM30.7434 7.14388C29.9628 7.97585 29.5364 9.08882 29.3785 10.3785L31.3637 10.6215C31.487 9.6143 31.795 8.94603 32.2019 8.51237L30.7434 7.14388ZM30.3711 11.5H36.7227V9.5H30.3711V11.5ZM37.7227 10.5V10.3359H35.7227V10.5H37.7227ZM37.7211 10.2793C37.6505 9.0367 37.3083 7.94217 36.5816 7.11931L35.0825 8.44319C35.4183 8.82345 35.6698 9.43205 35.7243 10.3926L37.7211 10.2793ZM36.5858 7.12411C35.8404 6.26908 34.8319 5.86719 33.6758 5.86719V7.86719C34.3321 7.86719 34.7612 8.07467 35.0783 8.43839L36.5858 7.12411ZM44.9492 12.1289L45.7483 11.5276L45.0412 10.588L44.2274 11.4369L44.9492 12.1289ZM43.5898 13.5469L42.868 12.8548L42.5898 13.145V13.5469H43.5898ZM43.5898 18V19H44.5898V18H43.5898ZM41.4219 18H40.4219V19H41.4219V18ZM41.4219 0V-1H40.4219V0H41.4219ZM43.5898 0H44.5898V-1H43.5898V0ZM43.5898 10.8867H42.5898V13.6523L44.3586 11.5263L43.5898 10.8867ZM44.75 9.49219L44.0238 8.80473L44.0017 8.828L43.9812 8.85264L44.75 9.49219ZM48.6992 5.32031V4.32031H48.2689L47.973 4.63285L48.6992 5.32031ZM51.3359 5.32031L52.0677 6.00188L53.6339 4.32031H51.3359V5.32031ZM46.4023 10.6172L45.6706 9.93562L45.1018 10.5463L45.6008 11.2151L46.4023 10.6172ZM51.9102 18V19H53.9038L52.7117 17.402L51.9102 18ZM49.3672 18L48.5681 18.6013L48.8682 19H49.3672V18ZM44.2274 11.4369L42.868 12.8548L44.3117 14.2389L45.6711 12.8209L44.2274 11.4369ZM42.5898 13.5469V18H44.5898V13.5469H42.5898ZM43.5898 17H41.4219V19H43.5898V17ZM42.4219 18V0H40.4219V18H42.4219ZM41.4219 1H43.5898V-1H41.4219V1ZM42.5898 0V10.8867H44.5898V0H42.5898ZM44.3586 11.5263L45.5188 10.1317L43.9812 8.85264L42.8211 10.2472L44.3586 11.5263ZM45.4762 10.1796L49.4254 6.00777L47.973 4.63285L44.0238 8.80473L45.4762 10.1796ZM48.6992 6.32031H51.3359V4.32031H48.6992V6.32031ZM50.6042 4.63874L45.6706 9.93562L47.1341 11.2988L52.0677 6.00188L50.6042 4.63874ZM45.6008 11.2151L51.1086 18.598L52.7117 17.402L47.2039 10.0192L45.6008 11.2151ZM51.9102 17H49.3672V19H51.9102V17ZM50.1662 17.3987L45.7483 11.5276L44.1502 12.7302L48.5681 18.6013L50.1662 17.3987ZM53.7266 8.19141L52.8307 7.74701L52.8279 7.7527L53.7266 8.19141ZM55.7656 5.89453L55.2411 5.04313L55.2377 5.04525L55.7656 5.89453ZM62.9375 6.87891L62.1901 7.54327L62.1925 7.54599L62.9375 6.87891ZM63.8281 15.1289L62.9281 14.6932L62.9266 14.6962L63.8281 15.1289ZM61.8008 17.4141L61.2742 16.564L61.2708 16.5661L61.8008 17.4141ZM54.5938 16.4414L53.8463 17.1058L53.8488 17.1085L54.5938 16.4414ZM56.1523 15.1875L55.3567 15.7933L55.3603 15.7979L56.1523 15.1875ZM61.4023 15.1758L62.2006 15.7781L62.2032 15.7746L61.4023 15.1758ZM61.3789 8.16797L60.5815 8.77144L60.5876 8.77942L61.3789 8.16797ZM54 11.543C54 10.4337 54.2154 9.46944 54.6252 8.63011L52.8279 7.7527C52.2689 8.89775 52 10.1679 52 11.543H54ZM54.6224 8.6358C55.0392 7.79551 55.5976 7.17645 56.2936 6.74382L55.2377 5.04525C54.1993 5.69074 53.3983 6.60293 52.8307 7.74702L54.6224 8.6358ZM56.2901 6.74593C56.9938 6.31243 57.8052 6.08594 58.7539 6.08594V4.08594C57.4682 4.08594 56.2875 4.39851 55.2411 5.04313L56.2901 6.74593ZM58.7539 6.08594C60.2204 6.08594 61.3337 6.57986 62.1901 7.54327L63.6849 6.21454C62.4163 4.78733 60.7405 4.08594 58.7539 4.08594V6.08594ZM62.1925 7.54599C63.0621 8.51718 63.543 9.84946 63.543 11.6484H65.543C65.543 9.47866 64.9535 7.63125 63.6825 6.21183L62.1925 7.54599ZM63.543 11.6484V11.8008H65.543V11.6484H63.543ZM63.543 11.8008C63.543 12.9038 63.3308 13.8612 62.9281 14.6932L64.7282 15.5647C65.2785 14.4279 65.543 13.1666 65.543 11.8008H63.543ZM62.9266 14.6962C62.5367 15.5085 61.9875 16.122 61.2742 16.564L62.3274 18.2642C63.3796 17.6123 64.1821 16.7024 64.7296 15.5616L62.9266 14.6962ZM61.2708 16.5661C60.5712 17.0033 59.751 17.2344 58.7773 17.2344V19.2344C60.085 19.2344 61.2804 18.9186 62.3308 18.2621L61.2708 16.5661ZM58.7773 17.2344C57.3201 17.2344 56.2046 16.7414 55.3387 15.7743L53.8488 17.1085C55.1235 18.5321 56.797 19.2344 58.7773 19.2344V17.2344ZM55.3412 15.777C54.4767 14.8046 54 13.4782 54 11.6953H52C52 13.85 52.5858 15.6876 53.8463 17.1058L55.3412 15.777ZM54 11.6953V11.543H52V11.6953H54ZM54.1797 11.8008C54.1797 13.3572 54.5394 14.7199 55.3567 15.7933L56.9479 14.5817C56.4684 13.952 56.1797 13.0569 56.1797 11.8008H54.1797ZM55.3603 15.7979C56.2097 16.9001 57.3798 17.4648 58.7773 17.4648V15.4648C57.9874 15.4648 57.4075 15.178 56.9444 14.5771L55.3603 15.7979ZM58.7773 17.4648C60.1841 17.4648 61.3581 16.8947 62.2006 15.7781L60.6041 14.5735C60.1497 15.1756 59.5737 15.4648 58.7773 15.4648V17.4648ZM62.2032 15.7746C63.0264 14.6737 63.375 13.2226 63.375 11.543H61.375C61.375 12.9727 61.0751 13.9435 60.6015 14.5769L62.2032 15.7746ZM63.375 11.543C63.375 9.99377 63.0035 8.63489 62.1702 7.55652L60.5876 8.77942C61.0825 9.4198 61.375 10.3109 61.375 11.543H63.375ZM62.1763 7.56453C61.3298 6.44587 60.1588 5.86719 58.7539 5.86719V7.86719C59.5365 7.86719 60.1155 8.15569 60.5815 8.77141L62.1763 7.56453ZM58.7539 5.86719C57.3718 5.86719 56.2166 6.43818 55.372 7.53412L56.9561 8.75494C57.4241 8.14776 57.9954 7.86719 58.7539 7.86719V5.86719ZM55.372 7.53412C54.5302 8.62643 54.1797 10.0947 54.1797 11.8008H56.1797C56.1797 10.335 56.4854 9.36576 56.9561 8.75494L55.372 7.53412ZM71.2578 15.0586L70.3084 15.3728L71.2701 18.2786L72.2095 15.3655L71.2578 15.0586ZM74.3984 5.32031V4.32031H73.6702L73.4467 5.01338L74.3984 5.32031ZM76.6133 5.32031L77.5546 5.65786L78.0342 4.32031H76.6133V5.32031ZM72.0664 18V19H72.7702L73.0077 18.3375L72.0664 18ZM70.4141 18L69.4739 18.3406L69.7127 19H70.4141V18ZM65.8203 5.32031V4.32031H64.3944L64.8801 5.66094L65.8203 5.32031ZM68.0352 5.32031L68.9845 5.00614L68.7576 4.32031H68.0352V5.32031ZM72.2095 15.3655L75.3502 5.62725L73.4467 5.01338L70.3061 14.7517L72.2095 15.3655ZM74.3984 6.32031H76.6133V4.32031H74.3984V6.32031ZM75.672 4.98276L71.1251 17.6625L73.0077 18.3375L77.5546 5.65786L75.672 4.98276ZM72.0664 17H70.4141V19H72.0664V17ZM71.3543 17.6594L66.7605 4.97969L64.8801 5.66094L69.4739 18.3406L71.3543 17.6594ZM65.8203 6.32031H68.0352V4.32031H65.8203V6.32031ZM67.0858 5.63448L70.3084 15.3728L72.2072 14.7444L68.9845 5.00614L67.0858 5.63448ZM81.0547 18V19H82.0547V18H81.0547ZM78.8867 18H77.8867V19H78.8867V18ZM78.8867 5.32031V4.32031H77.8867V5.32031H78.8867ZM81.0547 5.32031H82.0547V4.32031H81.0547V5.32031ZM79.0273 1.06641L78.2852 0.39612L78.2792 0.402819L78.2733 0.409626L79.0273 1.06641ZM79.0273 2.83594L78.284 3.5049L78.2901 3.51163L78.2963 3.51826L79.0273 2.83594ZM81.0547 17H78.8867V19H81.0547V17ZM79.8867 18V5.32031H77.8867V18H79.8867ZM78.8867 6.32031H81.0547V4.32031H78.8867V6.32031ZM80.0547 5.32031V18H82.0547V5.32031H80.0547ZM79.7109 1.95703C79.7109 1.82228 79.7445 1.76556 79.7814 1.72319L78.2733 0.409626C77.8883 0.851624 77.7109 1.38866 77.7109 1.95703H79.7109ZM79.7694 1.73669C79.7699 1.73616 79.77 1.73617 79.7696 1.73645C79.7693 1.73674 79.7691 1.73686 79.7693 1.73674C79.7695 1.73661 79.7706 1.73589 79.7729 1.7347C79.7752 1.73349 79.7792 1.73161 79.7853 1.72933C79.8096 1.72013 79.8711 1.70312 79.9883 1.70312V-0.296875C79.3714 -0.296875 78.7454 -0.113388 78.2852 0.39612L79.7694 1.73669ZM79.9883 1.70312C80.1055 1.70312 80.167 1.72013 80.1913 1.72933C80.1973 1.73161 80.2013 1.73349 80.2037 1.7347C80.206 1.73589 80.2071 1.73661 80.2073 1.73674C80.2074 1.73686 80.2073 1.73674 80.2069 1.73645C80.2066 1.73617 80.2066 1.73616 80.2071 1.73669L81.6913 0.39612C81.2311 -0.113388 80.6051 -0.296875 79.9883 -0.296875V1.70312ZM80.2071 1.73669C80.2464 1.78021 80.2773 1.83231 80.2773 1.95703H82.2773C82.2773 1.37863 82.0895 0.836979 81.6913 0.39612L80.2071 1.73669ZM80.2773 1.95703C80.2773 2.08192 80.2467 2.123 80.2182 2.15362L81.6803 3.51826C82.0892 3.08013 82.2773 2.53527 82.2773 1.95703H80.2773ZM80.2182 2.15362C80.2228 2.14866 80.2236 2.15233 80.2013 2.16049C80.1739 2.17054 80.1088 2.1875 79.9883 2.1875V4.1875C80.5955 4.1875 81.2177 4.01387 81.6803 3.51826L80.2182 2.15362ZM79.9883 2.1875C79.8678 2.1875 79.8027 2.17054 79.7752 2.16049C79.7529 2.15233 79.7538 2.14866 79.7584 2.15362L78.2963 3.51826C78.7589 4.01387 79.3811 4.1875 79.9883 4.1875V2.1875ZM79.7706 2.16697C79.7443 2.13775 79.7109 2.09214 79.7109 1.95703H77.7109C77.7109 2.52505 77.8885 3.06537 78.284 3.5049L79.7706 2.16697ZM87.4766 2.25H88.4766V1.25H87.4766V2.25ZM87.4766 5.32031H86.4766V6.32031H87.4766V5.32031ZM89.8438 5.32031H90.8438V4.32031H89.8438V5.32031ZM89.8438 6.99609V7.99609H90.8438V6.99609H89.8438ZM87.4766 6.99609V5.99609H86.4766V6.99609H87.4766ZM87.793 16.0078L87.019 16.6411L87.0238 16.6469L87.0287 16.6527L87.793 16.0078ZM89.9023 16.2422H90.9023V15.0052L89.6928 15.2644L89.9023 16.2422ZM89.9023 18L90.1666 18.9645L90.9023 18.7629V18H89.9023ZM85.3086 6.99609H86.3086V5.99609H85.3086V6.99609ZM83 6.99609H82V7.99609H83V6.99609ZM83 5.32031V4.32031H82V5.32031H83ZM85.3086 5.32031V6.32031H86.3086V5.32031H85.3086ZM85.3086 2.25V1.25H84.3086V2.25H85.3086ZM86.4766 2.25V5.32031H88.4766V2.25H86.4766ZM87.4766 6.32031H89.8438V4.32031H87.4766V6.32031ZM88.8438 5.32031V6.99609H90.8438V5.32031H88.8438ZM89.8438 5.99609H87.4766V7.99609H89.8438V5.99609ZM86.4766 6.99609V14.8594H88.4766V6.99609H86.4766ZM86.4766 14.8594C86.4766 15.4825 86.6025 16.1319 87.019 16.6411L88.5669 15.3746C88.5616 15.3681 88.4766 15.2519 88.4766 14.8594H86.4766ZM87.0287 16.6527C87.5143 17.2282 88.2316 17.3828 88.8711 17.3828V15.3828C88.6939 15.3828 88.5946 15.3603 88.5492 15.3446C88.511 15.3313 88.5292 15.3297 88.5573 15.3629L87.0287 16.6527ZM88.8711 17.3828C89.226 17.3828 89.6504 17.3189 90.1119 17.22L89.6928 15.2644C89.2793 15.353 89.0162 15.3828 88.8711 15.3828V17.3828ZM88.9023 16.2422V18H90.9023V16.2422H88.9023ZM89.6381 17.0355C89.1456 17.1705 88.6799 17.2344 88.2383 17.2344V19.2344C88.8748 19.2344 89.5184 19.142 90.1666 18.9645L89.6381 17.0355ZM88.2383 17.2344C87.4799 17.2344 87.0661 17.0141 86.8126 16.7123L85.2812 17.9987C86.012 18.8687 87.0592 19.2344 88.2383 19.2344V17.2344ZM86.8126 16.7123C86.5233 16.3679 86.3086 15.7972 86.3086 14.8594H84.3086C84.3086 16.0778 84.5861 17.1712 85.2812 17.9987L86.8126 16.7123ZM86.3086 14.8594V6.99609H84.3086V14.8594H86.3086ZM85.3086 5.99609H83V7.99609H85.3086V5.99609ZM84 6.99609V5.32031H82V6.99609H84ZM83 6.32031H85.3086V4.32031H83V6.32031ZM86.3086 5.32031V2.25H84.3086V5.32031H86.3086ZM85.3086 3.25H87.4766V1.25H85.3086V3.25ZM93.4531 16.5469L92.7287 17.2363L92.7311 17.2388L93.4531 16.5469ZM92.5508 8.25L91.6521 7.8113L91.6507 7.81425L92.5508 8.25ZM94.5664 5.92969L95.1087 6.76987L95.1106 6.76865L94.5664 5.92969ZM102.594 12.2812V13.2812H103.594V12.2812H102.594ZM94.0039 12.2812V11.2812H92.9786L93.0042 12.3062L94.0039 12.2812ZM95.0938 15.3164L94.35 15.985L94.3572 15.9928L95.0938 15.3164ZM101.105 14.7539L101.72 13.9649L100.928 13.3482L100.314 14.1425L101.105 14.7539ZM102.43 15.7852L103.268 16.3306L103.769 15.5606L103.044 14.9962L102.43 15.7852ZM95.1758 7.82812L95.9051 8.51238L95.9092 8.50789L95.1758 7.82812ZM94.0742 10.5L93.0816 10.3785L92.9443 11.5H94.0742V10.5ZM100.426 10.5V11.5H101.426V10.5H100.426ZM100.426 10.3359H101.426V10.3076L101.424 10.2793L100.426 10.3359ZM99.5352 7.78125L98.7814 8.4384L98.7856 8.44319L99.5352 7.78125ZM97.6484 17.2344C96.1712 17.2344 95.0442 16.7618 94.1751 15.855L92.7311 17.2388C94.0183 18.5819 95.6881 19.2344 97.6484 19.2344V17.2344ZM94.1775 15.8575C93.312 14.948 92.8359 13.7025 92.8359 12.0117H90.8359C90.8359 14.1022 91.438 15.8801 92.7287 17.2363L94.1775 15.8575ZM92.8359 12.0117V11.6133H90.8359V12.0117H92.8359ZM92.8359 11.6133C92.8359 10.4837 93.0493 9.51526 93.4509 8.68575L91.6507 7.81425C91.0992 8.95349 90.8359 10.2272 90.8359 11.6133H92.8359ZM93.4494 8.6887C93.8604 7.84682 94.4146 7.21787 95.1087 6.76987L94.0241 5.0895C92.9994 5.75088 92.2099 6.6688 91.6521 7.8113L93.4494 8.6887ZM95.1106 6.76865C95.8201 6.3084 96.5694 6.08594 97.3789 6.08594V4.08594C96.1728 4.08594 95.047 4.42597 94.0222 5.09073L95.1106 6.76865ZM97.3789 6.08594C98.7853 6.08594 99.7652 6.53621 100.458 7.35881L101.988 6.07088C100.852 4.7216 99.2694 4.08594 97.3789 4.08594V6.08594ZM100.458 7.35881C101.167 8.20119 101.594 9.4925 101.594 11.3789H103.594C103.594 9.21844 103.107 7.40037 101.988 6.07088L100.458 7.35881ZM101.594 11.3789V12.2812H103.594V11.3789H101.594ZM102.594 11.2812H94.0039V13.2812H102.594V11.2812ZM93.0042 12.3062C93.0402 13.7441 93.4648 15.0002 94.3501 15.985L95.8374 14.6479C95.3321 14.0858 95.0301 13.3184 95.0036 12.2563L93.0042 12.3062ZM94.3572 15.9928C95.2575 16.9732 96.4193 17.4648 97.7656 17.4648V15.4648C96.9557 15.4648 96.3362 15.1909 95.8303 14.64L94.3572 15.9928ZM97.7656 17.4648C98.6667 17.4648 99.4999 17.2804 100.218 16.858L99.2039 15.1342C98.8595 15.3368 98.3958 15.4648 97.7656 15.4648V17.4648ZM100.218 16.858C100.865 16.4773 101.425 15.976 101.897 15.3654L100.314 14.1425C99.9892 14.5631 99.6191 14.8899 99.2039 15.1342L100.218 16.858ZM100.491 15.5429L101.815 16.5741L103.044 14.9962L101.72 13.9649L100.491 15.5429ZM101.592 15.2397C100.733 16.5597 99.4716 17.2344 97.6484 17.2344V19.2344C100.075 19.2344 102.002 18.2762 103.268 16.3306L101.592 15.2397ZM97.3789 5.86719C96.2261 5.86719 95.2257 6.30314 94.4424 7.14836L95.9092 8.50789C96.3133 8.07186 96.7817 7.86719 97.3789 7.86719V5.86719ZM94.4465 7.14388C93.6659 7.97585 93.2395 9.08882 93.0816 10.3785L95.0668 10.6215C95.1901 9.6143 95.4981 8.94603 95.905 8.51237L94.4465 7.14388ZM94.0742 11.5H100.426V9.5H94.0742V11.5ZM101.426 10.5V10.3359H99.4258V10.5H101.426ZM101.424 10.2793C101.354 9.0367 101.011 7.94217 100.285 7.11931L98.7856 8.44319C99.1214 8.82345 99.3729 9.43205 99.4274 10.3926L101.424 10.2793ZM100.289 7.12411C99.5435 6.26908 98.5351 5.86719 97.3789 5.86719V7.86719C98.0352 7.86719 98.4643 8.07467 98.7814 8.43839L100.289 7.12411ZM111.406 18H110.406V19H111.406V18ZM111.406 0.9375V-0.0625H110.406V0.9375H111.406ZM121.156 2.08594L120.521 2.85787L120.524 2.86047L121.156 2.08594ZM121.883 7.60547L122.685 8.20218L122.689 8.19727L121.883 7.60547ZM120.031 9.02344L119.636 8.10477L117.034 9.22364L119.762 9.98649L120.031 9.02344ZM122.211 10.5L121.404 11.0903L121.411 11.1L122.211 10.5ZM113.656 10.0195V9.01953H112.656V10.0195H113.656ZM113.656 16.1602H112.656V17.1602H113.656V16.1602ZM119.844 15.3516L120.511 16.0963L120.512 16.0958L119.844 15.3516ZM113.656 8.21484H112.656V9.21484H113.656V8.21484ZM119.41 7.47656L118.772 6.70667L118.767 6.71086L119.41 7.47656ZM119.48 3.43359L118.863 4.21994L118.87 4.22538L119.48 3.43359ZM113.656 2.78906V1.78906H112.656V2.78906H113.656ZM112.406 18V0.9375H110.406V18H112.406ZM111.406 1.9375H116.984V-0.0625H111.406V1.9375ZM116.984 1.9375C118.723 1.9375 119.844 2.3007 120.521 2.85787L121.792 1.31401C120.609 0.339926 118.949 -0.0625 116.984 -0.0625V1.9375ZM120.524 2.86047C121.174 3.39144 121.562 4.20592 121.562 5.48438H123.562C123.562 3.76283 123.014 2.31168 121.789 1.31141L120.524 2.86047ZM121.562 5.48438C121.562 6.07764 121.398 6.5754 121.077 7.01366L122.689 8.19727C123.273 7.40116 123.562 6.48486 123.562 5.48438H121.562ZM121.08 7.00877C120.744 7.46045 120.276 7.82988 119.636 8.10477L120.426 9.94211C121.349 9.54512 122.115 8.96924 122.685 8.20217L121.08 7.00877ZM119.762 9.98649C120.482 10.188 121.014 10.5567 121.404 11.0902L123.018 9.90977C122.346 8.99016 121.424 8.37451 120.301 8.06039L119.762 9.98649ZM121.411 11.1C121.806 11.6261 122.02 12.2688 122.02 13.0781H124.02C124.02 11.8875 123.694 10.8114 123.011 9.9L121.411 11.1ZM122.02 13.0781C122.02 14.3723 121.612 15.283 120.87 15.9375L122.193 17.4375C123.435 16.342 124.02 14.8464 124.02 13.0781H122.02ZM120.87 15.9375C120.118 16.6002 118.984 17 117.324 17V19C119.29 19 120.96 18.5248 122.193 17.4375L120.87 15.9375ZM117.324 17H111.406V19H117.324V17ZM112.656 10.0195V16.1602H114.656V10.0195H112.656ZM113.656 17.1602H117.371V15.1602H113.656V17.1602ZM117.371 17.1602C118.589 17.1602 119.677 16.8436 120.511 16.0963L119.176 14.6068C118.807 14.9376 118.247 15.1602 117.371 15.1602V17.1602ZM120.512 16.0958C121.368 15.3275 121.758 14.2874 121.758 13.1016H119.758C119.758 13.8219 119.539 14.2818 119.176 14.6073L120.512 16.0958ZM121.758 13.1016C121.758 11.8975 121.427 10.817 120.597 10.054C119.783 9.30548 118.658 9.01953 117.406 9.01953V11.0195C118.389 11.0195 118.94 11.2473 119.243 11.5261C119.53 11.7904 119.758 12.2509 119.758 13.1016H121.758ZM117.406 9.01953H113.656V11.0195H117.406V9.01953ZM113.656 9.21484H117.055V7.21484H113.656V9.21484ZM117.055 9.21484C118.206 9.21484 119.241 8.92478 120.053 8.24227L118.767 6.71086C118.408 7.01272 117.873 7.21484 117.055 7.21484V9.21484ZM120.048 8.24644C120.895 7.54488 121.301 6.58231 121.301 5.47266H119.301C119.301 6.0505 119.113 6.42387 118.772 6.70668L120.048 8.24644ZM121.301 5.47266C121.301 4.34392 120.964 3.31535 120.091 2.64181L118.87 4.22538C119.09 4.39558 119.301 4.72639 119.301 5.47266H121.301ZM120.098 2.64728C119.297 2.01737 118.199 1.78906 116.984 1.78906V3.78906C118.004 3.78906 118.571 3.99045 118.863 4.21991L120.098 2.64728ZM116.984 1.78906H113.656V3.78906H116.984V1.78906ZM112.656 2.78906V8.21484H114.656V2.78906H112.656ZM128.375 18V19H129.375V18H128.375ZM126.207 18H125.207V19H126.207V18ZM126.207 5.32031V4.32031H125.207V5.32031H126.207ZM128.375 5.32031H129.375V4.32031H128.375V5.32031ZM126.348 1.06641L125.606 0.39612L125.6 0.402819L125.594 0.409626L126.348 1.06641ZM126.348 2.83594L125.604 3.5049L125.61 3.51163L125.617 3.51826L126.348 2.83594ZM128.375 17H126.207V19H128.375V17ZM127.207 18V5.32031H125.207V18H127.207ZM126.207 6.32031H128.375V4.32031H126.207V6.32031ZM127.375 5.32031V18H129.375V5.32031H127.375ZM127.031 1.95703C127.031 1.82228 127.065 1.76556 127.102 1.72319L125.594 0.409626C125.209 0.851624 125.031 1.38866 125.031 1.95703H127.031ZM127.09 1.73669C127.09 1.73616 127.09 1.73617 127.09 1.73645C127.09 1.73674 127.089 1.73686 127.09 1.73674C127.09 1.73661 127.091 1.73589 127.093 1.7347C127.096 1.73349 127.1 1.73161 127.106 1.72933C127.13 1.72013 127.191 1.70312 127.309 1.70312V-0.296875C126.692 -0.296875 126.066 -0.113388 125.606 0.39612L127.09 1.73669ZM127.309 1.70312C127.426 1.70312 127.487 1.72013 127.512 1.72933C127.518 1.73161 127.522 1.73349 127.524 1.7347C127.526 1.73589 127.527 1.73661 127.528 1.73674C127.528 1.73686 127.528 1.73674 127.527 1.73645C127.527 1.73617 127.527 1.73616 127.527 1.73669L129.012 0.39612C128.551 -0.113388 127.925 -0.296875 127.309 -0.296875V1.70312ZM127.527 1.73669C127.567 1.78021 127.598 1.83231 127.598 1.95703H129.598C129.598 1.37863 129.41 0.836979 129.012 0.39612L127.527 1.73669ZM127.598 1.95703C127.598 2.08192 127.567 2.123 127.538 2.15362L129.001 3.51826C129.41 3.08013 129.598 2.53527 129.598 1.95703H127.598ZM127.538 2.15362C127.543 2.14866 127.544 2.15233 127.522 2.16049C127.494 2.17054 127.429 2.1875 127.309 2.1875V4.1875C127.916 4.1875 128.538 4.01387 129.001 3.51826L127.538 2.15362ZM127.309 2.1875C127.188 2.1875 127.123 2.17054 127.096 2.16049C127.073 2.15233 127.074 2.14866 127.079 2.15362L125.617 3.51826C126.079 4.01387 126.701 4.1875 127.309 4.1875V2.1875ZM127.091 2.16697C127.065 2.13775 127.031 2.09214 127.031 1.95703H125.031C125.031 2.52505 125.209 3.06537 125.604 3.5049L127.091 2.16697ZM134.211 18V19H135.211V18H134.211ZM132.043 18H131.043V19H132.043V18ZM132.043 0V-1H131.043V0H132.043ZM134.211 0H135.211V-1H134.211V0ZM134.211 17H132.043V19H134.211V17ZM133.043 18V0H131.043V18H133.043ZM132.043 1H134.211V-1H132.043V1ZM133.211 0V18H135.211V0H133.211ZM139.93 5.32031H140.93V4.32031H139.93V5.32031ZM135.289 22.9102H134.289V23.6222L134.962 23.8551L135.289 22.9102ZM135.289 21.1758L135.532 20.2056L134.289 19.895V21.1758H135.289ZM137.375 20.8711L136.668 20.164L136.657 20.1747L136.647 20.1857L137.375 20.8711ZM137.762 5.32031V4.32031H136.762V5.32031H137.762ZM137.855 1.07812L137.103 0.419619L137.101 0.421344L137.855 1.07812ZM138.93 5.32031V19.4648H140.93V5.32031H138.93ZM138.93 19.4648C138.93 20.5523 138.681 21.1812 138.36 21.5352C138.056 21.8707 137.538 22.1211 136.613 22.1211V24.1211C137.899 24.1211 139.04 23.7621 139.841 22.8789C140.626 22.0141 140.93 20.8149 140.93 19.4648H138.93ZM136.613 22.1211C136.236 22.1211 135.906 22.0656 135.616 21.9652L134.962 23.8551C135.484 24.0359 136.037 24.1211 136.613 24.1211V22.1211ZM136.289 22.9102V21.1758H134.289V22.9102H136.289ZM135.047 22.1459C135.408 22.2362 135.827 22.2695 136.273 22.2695V20.2695C135.908 20.2695 135.67 20.2403 135.532 20.2056L135.047 22.1459ZM136.273 22.2695C136.939 22.2695 137.608 22.0826 138.103 21.5565L136.647 20.1857C136.642 20.1908 136.577 20.2695 136.273 20.2695V22.2695ZM138.082 21.5782C138.629 21.0316 138.762 20.2358 138.762 19.5117H136.762C136.762 19.7755 136.735 19.953 136.703 20.0643C136.672 20.1736 136.646 20.1857 136.668 20.164L138.082 21.5782ZM138.762 19.5117V5.32031H136.762V19.5117H138.762ZM137.762 6.32031H139.93V4.32031H137.762V6.32031ZM138.539 1.95703C138.539 1.83631 138.569 1.78161 138.61 1.73491L137.101 0.421344C136.72 0.859013 136.539 1.39026 136.539 1.95703H138.539ZM138.608 1.73663C138.61 1.7345 138.611 1.73235 138.624 1.72693C138.643 1.71948 138.697 1.70312 138.805 1.70312V-0.296875C138.179 -0.296875 137.557 -0.0991788 137.103 0.41962L138.608 1.73663ZM138.805 1.70312C138.922 1.70312 138.983 1.72013 139.008 1.72933C139.014 1.73161 139.018 1.73349 139.02 1.7347C139.022 1.73589 139.023 1.73661 139.024 1.73674C139.024 1.73686 139.024 1.73674 139.023 1.73645C139.023 1.73617 139.023 1.73616 139.024 1.73669L140.508 0.39612C140.048 -0.113388 139.422 -0.296875 138.805 -0.296875V1.70312ZM139.024 1.73669C139.063 1.78021 139.094 1.83231 139.094 1.95703H141.094C141.094 1.37863 140.906 0.836979 140.508 0.39612L139.024 1.73669ZM139.094 1.95703C139.094 2.08192 139.063 2.123 139.035 2.15362L140.497 3.51826C140.906 3.08013 141.094 2.53527 141.094 1.95703H139.094ZM139.035 2.15362C139.039 2.14866 139.04 2.15233 139.018 2.16049C138.99 2.17054 138.925 2.1875 138.805 2.1875V4.1875C139.412 4.1875 140.034 4.01387 140.497 3.51826L139.035 2.15362ZM138.805 2.1875C138.684 2.1875 138.621 2.17042 138.598 2.16186C138.581 2.15544 138.588 2.15547 138.599 2.16697L137.112 3.5049C137.571 4.01465 138.2 4.1875 138.805 4.1875V2.1875ZM138.599 2.16697C138.572 2.13775 138.539 2.09214 138.539 1.95703H136.539C136.539 2.52505 136.717 3.06537 137.112 3.5049L138.599 2.16697ZM146.973 12.1289L147.772 11.5276L147.065 10.588L146.251 11.4369L146.973 12.1289ZM145.613 13.5469L144.891 12.8548L144.613 13.145V13.5469H145.613ZM145.613 18V19H146.613V18H145.613ZM143.445 18H142.445V19H143.445V18ZM143.445 0V-1H142.445V0H143.445ZM145.613 0H146.613V-1H145.613V0ZM145.613 10.8867H144.613V13.6523L146.382 11.5263L145.613 10.8867ZM146.773 9.49219L146.047 8.80473L146.025 8.828L146.005 8.85264L146.773 9.49219ZM150.723 5.32031V4.32031H150.292L149.996 4.63285L150.723 5.32031ZM153.359 5.32031L154.091 6.00188L155.657 4.32031H153.359V5.32031ZM148.426 10.6172L147.694 9.93562L147.125 10.5463L147.624 11.2151L148.426 10.6172ZM153.934 18V19H155.927L154.735 17.402L153.934 18ZM151.391 18L150.592 18.6013L150.892 19H151.391V18ZM146.251 11.4369L144.891 12.8548L146.335 14.2389L147.695 12.8209L146.251 11.4369ZM144.613 13.5469V18H146.613V13.5469H144.613ZM145.613 17H143.445V19H145.613V17ZM144.445 18V0H142.445V18H144.445ZM143.445 1H145.613V-1H143.445V1ZM144.613 0V10.8867H146.613V0H144.613ZM146.382 11.5263L147.542 10.1317L146.005 8.85264L144.845 10.2472L146.382 11.5263ZM147.5 10.1796L151.449 6.00777L149.996 4.63285L146.047 8.80473L147.5 10.1796ZM150.723 6.32031H153.359V4.32031H150.723V6.32031ZM152.628 4.63874L147.694 9.93562L149.158 11.2988L154.091 6.00188L152.628 4.63874ZM147.624 11.2151L153.132 18.598L154.735 17.402L149.227 10.0192L147.624 11.2151ZM153.934 17H151.391V19H153.934V17ZM152.19 17.3987L147.772 11.5276L146.174 12.7302L150.592 18.6013L152.19 17.3987ZM156.43 16.5469L155.705 17.2363L155.708 17.2388L156.43 16.5469ZM155.527 8.25L154.629 7.8113L154.627 7.81425L155.527 8.25ZM157.543 5.92969L158.085 6.76987L158.087 6.76865L157.543 5.92969ZM165.57 12.2812V13.2812H166.57V12.2812H165.57ZM156.98 12.2812V11.2812H155.955L155.981 12.3062L156.98 12.2812ZM158.07 15.3164L157.327 15.985L157.334 15.9928L158.07 15.3164ZM164.082 14.7539L164.696 13.9649L163.905 13.3482L163.291 14.1425L164.082 14.7539ZM165.406 15.7852L166.244 16.3306L166.745 15.5606L166.021 14.9962L165.406 15.7852ZM158.152 7.82812L158.882 8.51238L158.886 8.50789L158.152 7.82812ZM157.051 10.5L156.058 10.3785L155.921 11.5H157.051V10.5ZM163.402 10.5V11.5H164.402V10.5H163.402ZM163.402 10.3359H164.402V10.3076L164.401 10.2793L163.402 10.3359ZM162.512 7.78125L161.758 8.4384L161.762 8.44319L162.512 7.78125ZM160.625 17.2344C159.148 17.2344 158.021 16.7618 157.152 15.855L155.708 17.2388C156.995 18.5819 158.665 19.2344 160.625 19.2344V17.2344ZM157.154 15.8575C156.289 14.948 155.812 13.7025 155.812 12.0117H153.812C153.812 14.1022 154.415 15.8801 155.705 17.2363L157.154 15.8575ZM155.812 12.0117V11.6133H153.812V12.0117H155.812ZM155.812 11.6133C155.812 10.4837 156.026 9.51526 156.427 8.68575L154.627 7.81425C154.076 8.95349 153.812 10.2272 153.812 11.6133H155.812ZM156.426 8.6887C156.837 7.84682 157.391 7.21787 158.085 6.76987L157.001 5.0895C155.976 5.75088 155.186 6.6688 154.629 7.8113L156.426 8.6887ZM158.087 6.76865C158.797 6.3084 159.546 6.08594 160.355 6.08594V4.08594C159.149 4.08594 158.024 4.42597 156.999 5.09073L158.087 6.76865ZM160.355 6.08594C161.762 6.08594 162.742 6.53621 163.434 7.35881L164.964 6.07088C163.829 4.7216 162.246 4.08594 160.355 4.08594V6.08594ZM163.434 7.35881C164.143 8.20119 164.57 9.4925 164.57 11.3789H166.57C166.57 9.21844 166.083 7.40037 164.964 6.07088L163.434 7.35881ZM164.57 11.3789V12.2812H166.57V11.3789H164.57ZM165.57 11.2812H156.98V13.2812H165.57V11.2812ZM155.981 12.3062C156.017 13.7441 156.441 15.0002 157.327 15.985L158.814 14.6479C158.309 14.0858 158.007 13.3184 157.98 12.2563L155.981 12.3062ZM157.334 15.9928C158.234 16.9732 159.396 17.4648 160.742 17.4648V15.4648C159.932 15.4648 159.313 15.1909 158.807 14.64L157.334 15.9928ZM160.742 17.4648C161.643 17.4648 162.476 17.2804 163.195 16.858L162.18 15.1342C161.836 15.3368 161.372 15.4648 160.742 15.4648V17.4648ZM163.195 16.858C163.842 16.4773 164.401 15.976 164.873 15.3654L163.291 14.1425C162.966 14.5631 162.596 14.8899 162.18 15.1342L163.195 16.858ZM163.468 15.5429L164.792 16.5741L166.021 14.9962L164.696 13.9649L163.468 15.5429ZM164.568 15.2397C163.709 16.5597 162.448 17.2344 160.625 17.2344V19.2344C163.052 19.2344 164.978 18.2762 166.244 16.3306L164.568 15.2397ZM160.355 5.86719C159.203 5.86719 158.202 6.30314 157.419 7.14836L158.886 8.50789C159.29 8.07186 159.758 7.86719 160.355 7.86719V5.86719ZM157.423 7.14388C156.642 7.97585 156.216 9.08882 156.058 10.3785L158.043 10.6215C158.167 9.6143 158.475 8.94603 158.882 8.51237L157.423 7.14388ZM157.051 11.5H163.402V9.5H157.051V11.5ZM164.402 10.5V10.3359H162.402V10.5H164.402ZM164.401 10.2793C164.33 9.0367 163.988 7.94217 163.261 7.11931L161.762 8.44319C162.098 8.82345 162.349 9.43205 162.404 10.3926L164.401 10.2793ZM163.265 7.12411C162.52 6.26908 161.512 5.86719 160.355 5.86719V7.86719C161.012 7.86719 161.441 8.07467 161.758 8.43839L163.265 7.12411Z" fill="#29A7A7" fill-opacity="0.2"/>
</g>
<defs>
<filter id="filter0_d_2_4" x="0.53125" y="0" width="169.039" height="31.1211" filterUnits="userSpaceOnUse" color-interpolation-filters="sRGB">
<feFlood flood-opacity="0" result="BackgroundImageFix"/>
<feColorMatrix in="SourceAlpha" type="matrix" values="0 0 0 0 0 0 0 0 0 0 0 0 0 0 0 0 0 0 127 0" result="hardAlpha"/>
<feOffset dy="4"/>
<feGaussianBlur stdDeviation="2"/>
<feComposite in2="hardAlpha" operator="out"/>
<feColorMatrix type="matrix" values="0 0 0 0 0 0 0 0 0 0 0 0 0 0 0 0 0 0 0.25 0"/>
<feBlend mode="normal" in2="BackgroundImageFix" result="effect1_dropShadow_2_4"/>
<feBlend mode="normal" in="SourceGraphic" in2="effect1_dropShadow_2_4" result="shape"/>
</filter>
</defs>
</svg>
